<svg width="375" height="812" viewBox="0 0 375 812" fill="none" xmlns="http://www.w3.org/2000/svg">
<rect x="1" y="1" width="373" height="810" rx="49" fill="#ECF0F3"/>
<rect x="40" y="248" width="294" height="51" rx="25.5" stroke="black" stroke-width="2"/>
<rect x="38" y="321" width="294" height="51" rx="25.5" stroke="black" stroke-width="2"/>
<rect x="38" y="479" width="294" height="51" rx="25.5" stroke="black" stroke-width="2"/>
<rect x="178" y="269" width="135" height="3" fill="#9CABC2"/>
<rect x="178" y="282" width="105" height="3" fill="#9CABC2"/>
<rect x="178" y="340" width="105" height="3" fill="#9CABC2"/>
<rect x="178" y="353" width="105" height="3" fill="#9CABC2"/>
<rect opacity="0.2" x="18.5" y="126.5" width="342" height="91" rx="9.5" stroke="black"/>
<path d="M128.303 151H125.49L130.611 136.455H133.864L138.991 151H136.179L132.294 139.438H132.18L128.303 151ZM128.395 145.297H136.065V147.413H128.395V145.297ZM150.51 151.192C149.653 151.192 148.886 150.972 148.209 150.531C147.532 150.091 146.997 149.452 146.604 148.614C146.211 147.776 146.014 146.758 146.014 145.56C146.014 144.348 146.213 143.325 146.611 142.491C147.013 141.653 147.555 141.021 148.237 140.595C148.919 140.164 149.679 139.949 150.517 139.949C151.156 139.949 151.682 140.058 152.094 140.276C152.506 140.489 152.832 140.747 153.074 141.05C153.315 141.348 153.502 141.63 153.635 141.895H153.741V136.455H156.32V151H153.791V149.281H153.635C153.502 149.546 153.311 149.828 153.06 150.126C152.809 150.42 152.477 150.671 152.065 150.879C151.653 151.088 151.135 151.192 150.51 151.192ZM151.227 149.082C151.772 149.082 152.236 148.936 152.619 148.642C153.003 148.344 153.294 147.929 153.493 147.399C153.692 146.869 153.791 146.251 153.791 145.545C153.791 144.84 153.692 144.227 153.493 143.706C153.299 143.185 153.01 142.78 152.626 142.491C152.248 142.203 151.781 142.058 151.227 142.058C150.654 142.058 150.176 142.207 149.793 142.506C149.409 142.804 149.12 143.216 148.926 143.741C148.732 144.267 148.635 144.868 148.635 145.545C148.635 146.227 148.732 146.836 148.926 147.371C149.125 147.901 149.416 148.32 149.8 148.628C150.188 148.931 150.664 149.082 151.227 149.082ZM165.059 151V140.091H167.63V151H165.059ZM166.352 138.543C165.945 138.543 165.594 138.408 165.301 138.138C165.007 137.863 164.86 137.534 164.86 137.151C164.86 136.762 165.007 136.433 165.301 136.163C165.594 135.889 165.945 135.751 166.352 135.751C166.764 135.751 167.114 135.889 167.403 136.163C167.697 136.433 167.843 136.762 167.843 137.151C167.843 137.534 167.697 137.863 167.403 138.138C167.114 138.408 166.764 138.543 166.352 138.543ZM181.033 151.213C179.944 151.213 179.009 150.974 178.227 150.496C177.451 150.018 176.852 149.357 176.43 148.514C176.014 147.667 175.805 146.691 175.805 145.588C175.805 144.48 176.018 143.502 176.445 142.655C176.871 141.803 177.472 141.14 178.249 140.666C179.03 140.188 179.953 139.949 181.018 139.949C181.904 139.949 182.688 140.112 183.369 140.439C184.056 140.761 184.603 141.218 185.01 141.81C185.417 142.397 185.649 143.083 185.706 143.869H183.249C183.149 143.344 182.912 142.906 182.538 142.555C182.169 142.2 181.674 142.023 181.054 142.023C180.528 142.023 180.067 142.165 179.669 142.449C179.271 142.728 178.961 143.131 178.739 143.656C178.521 144.182 178.412 144.812 178.412 145.545C178.412 146.289 178.521 146.928 178.739 147.463C178.956 147.993 179.262 148.403 179.655 148.692C180.053 148.976 180.519 149.118 181.054 149.118C181.433 149.118 181.771 149.047 182.07 148.905C182.373 148.758 182.626 148.547 182.83 148.273C183.033 147.998 183.173 147.664 183.249 147.271H185.706C185.644 148.043 185.417 148.727 185.024 149.324C184.631 149.916 184.096 150.38 183.419 150.716C182.742 151.047 181.946 151.213 181.033 151.213ZM193.817 151V140.091H196.388V151H193.817ZM195.11 138.543C194.703 138.543 194.352 138.408 194.059 138.138C193.765 137.863 193.618 137.534 193.618 137.151C193.618 136.762 193.765 136.433 194.059 136.163C194.352 135.889 194.703 135.751 195.11 135.751C195.522 135.751 195.872 135.889 196.161 136.163C196.454 136.433 196.601 136.762 196.601 137.151C196.601 137.534 196.454 137.863 196.161 138.138C195.872 138.408 195.522 138.543 195.11 138.543ZM209.79 151.213C208.725 151.213 207.802 150.979 207.021 150.51C206.239 150.041 205.633 149.385 205.202 148.543C204.776 147.7 204.563 146.715 204.563 145.588C204.563 144.461 204.776 143.474 205.202 142.626C205.633 141.779 206.239 141.121 207.021 140.652C207.802 140.183 208.725 139.949 209.79 139.949C210.856 139.949 211.779 140.183 212.56 140.652C213.342 141.121 213.945 141.779 214.371 142.626C214.802 143.474 215.018 144.461 215.018 145.588C215.018 146.715 214.802 147.7 214.371 148.543C213.945 149.385 213.342 150.041 212.56 150.51C211.779 150.979 210.856 151.213 209.79 151.213ZM209.805 149.153C210.382 149.153 210.865 148.995 211.254 148.678C211.642 148.356 211.931 147.925 212.12 147.385C212.314 146.845 212.411 146.244 212.411 145.581C212.411 144.913 212.314 144.31 212.12 143.77C211.931 143.225 211.642 142.792 211.254 142.47C210.865 142.148 210.382 141.987 209.805 141.987C209.213 141.987 208.72 142.148 208.327 142.47C207.939 142.792 207.648 143.225 207.454 143.77C207.264 144.31 207.17 144.913 207.17 145.581C207.17 146.244 207.264 146.845 207.454 147.385C207.648 147.925 207.939 148.356 208.327 148.678C208.72 148.995 209.213 149.153 209.805 149.153ZM225.771 144.608V151H223.2V140.091H225.657V141.945H225.785C226.036 141.334 226.436 140.848 226.985 140.489C227.539 140.129 228.224 139.949 229.038 139.949C229.791 139.949 230.447 140.11 231.005 140.432C231.569 140.754 232.004 141.22 232.312 141.831C232.625 142.442 232.779 143.183 232.774 144.054V151H230.203V144.452C230.203 143.723 230.013 143.152 229.635 142.74C229.261 142.328 228.742 142.122 228.079 142.122C227.629 142.122 227.229 142.222 226.879 142.42C226.533 142.615 226.261 142.896 226.062 143.266C225.868 143.635 225.771 144.082 225.771 144.608ZM244.527 151.22C243.835 151.22 243.213 151.097 242.659 150.851C242.109 150.6 241.674 150.231 241.352 149.743C241.035 149.255 240.876 148.654 240.876 147.939C240.876 147.323 240.99 146.814 241.217 146.412C241.444 146.009 241.754 145.688 242.147 145.446C242.54 145.205 242.983 145.022 243.475 144.899C243.973 144.771 244.486 144.679 245.017 144.622C245.656 144.556 246.174 144.497 246.572 144.445C246.97 144.388 247.259 144.303 247.439 144.189C247.623 144.071 247.716 143.888 247.716 143.642V143.599C247.716 143.064 247.557 142.65 247.24 142.357C246.922 142.063 246.466 141.916 245.869 141.916C245.239 141.916 244.74 142.054 244.37 142.328C244.006 142.603 243.76 142.927 243.632 143.301L241.231 142.96C241.421 142.297 241.733 141.743 242.169 141.298C242.604 140.848 243.137 140.512 243.767 140.29C244.396 140.062 245.092 139.949 245.855 139.949C246.38 139.949 246.904 140.01 247.424 140.134C247.945 140.257 248.421 140.46 248.852 140.744C249.283 141.024 249.628 141.405 249.889 141.888C250.154 142.371 250.287 142.974 250.287 143.699V151H247.815V149.501H247.73C247.574 149.804 247.353 150.089 247.069 150.354C246.79 150.614 246.437 150.825 246.011 150.986C245.59 151.142 245.095 151.22 244.527 151.22ZM245.194 149.331C245.71 149.331 246.158 149.229 246.537 149.026C246.915 148.817 247.207 148.543 247.41 148.202C247.618 147.861 247.723 147.489 247.723 147.087V145.801C247.642 145.867 247.505 145.929 247.311 145.986C247.121 146.043 246.908 146.092 246.672 146.135C246.435 146.178 246.2 146.215 245.968 146.249C245.736 146.282 245.535 146.31 245.365 146.334C244.981 146.386 244.638 146.471 244.335 146.589C244.032 146.708 243.793 146.874 243.618 147.087C243.442 147.295 243.355 147.565 243.355 147.896C243.355 148.37 243.528 148.727 243.873 148.969C244.219 149.21 244.659 149.331 245.194 149.331ZM258.872 151V140.091H261.365V141.909H261.478C261.677 141.279 262.018 140.794 262.501 140.453C262.989 140.107 263.545 139.935 264.17 139.935C264.312 139.935 264.471 139.942 264.646 139.956C264.826 139.965 264.975 139.982 265.093 140.006V142.371C264.984 142.333 264.812 142.3 264.575 142.271C264.343 142.238 264.118 142.222 263.9 142.222C263.431 142.222 263.01 142.323 262.636 142.527C262.267 142.726 261.975 143.003 261.762 143.358C261.549 143.713 261.443 144.123 261.443 144.587V151H258.872Z" fill="black"/>
<rect x="0.996748" y="1.00148" width="298.73" height="48.8246" rx="24.4123" transform="matrix(0.999999 0.00149024 -0.00325058 0.999995 39.4468 53.1748)" stroke="black" stroke-width="2"/>
<path d="M87.0709 78.4513C86.9807 88.7873 78.2776 97.1393 67.5721 97.0458C56.8666 96.9524 48.3106 88.4498 48.4008 78.1139C48.491 67.7779 57.1941 59.4259 67.8996 59.5193C78.6051 59.6128 87.1611 68.1154 87.0709 78.4513Z" stroke="black" stroke-width="2"/>
<path d="M96.8608 83V74.2727H100.134C100.804 74.2727 101.366 74.3977 101.821 74.6477C102.278 74.8977 102.624 75.2415 102.857 75.679C103.092 76.1136 103.21 76.608 103.21 77.1619C103.21 77.7216 103.092 78.2187 102.857 78.6534C102.621 79.0881 102.273 79.4304 101.812 79.6804C101.352 79.9276 100.786 80.0511 100.112 80.0511H97.9432V78.7514H99.8991C100.291 78.7514 100.612 78.6832 100.862 78.5469C101.112 78.4105 101.297 78.223 101.416 77.9844C101.538 77.7457 101.599 77.4716 101.599 77.1619C101.599 76.8523 101.538 76.5795 101.416 76.3438C101.297 76.108 101.111 75.9247 100.858 75.794C100.608 75.6605 100.286 75.5938 99.8906 75.5938H98.4418V83H96.8608ZM107.319 83.1278C106.663 83.1278 106.096 82.9915 105.619 82.7188C105.145 82.4432 104.779 82.054 104.524 81.5511C104.268 81.0455 104.14 80.4503 104.14 79.7656C104.14 79.0923 104.268 78.5014 104.524 77.9929C104.782 77.4815 105.143 77.0838 105.606 76.7997C106.069 76.5128 106.613 76.3693 107.238 76.3693C107.642 76.3693 108.022 76.4347 108.38 76.5653C108.741 76.6932 109.059 76.892 109.335 77.1619C109.613 77.4318 109.832 77.7756 109.991 78.1932C110.15 78.608 110.23 79.1023 110.23 79.6761V80.1491H104.865V79.1094H108.751C108.748 78.8139 108.684 78.5511 108.559 78.321C108.434 78.0881 108.26 77.9048 108.035 77.7713C107.814 77.6378 107.555 77.571 107.26 77.571C106.944 77.571 106.667 77.6477 106.429 77.8011C106.19 77.9517 106.004 78.1506 105.87 78.3977C105.74 78.642 105.673 78.9105 105.67 79.2031V80.1108C105.67 80.4915 105.74 80.8182 105.879 81.0909C106.018 81.3608 106.213 81.5682 106.463 81.7131C106.713 81.8551 107.005 81.9261 107.341 81.9261C107.565 81.9261 107.768 81.8949 107.95 81.8324C108.132 81.767 108.289 81.6719 108.423 81.5469C108.556 81.4219 108.657 81.267 108.725 81.0824L110.166 81.2443C110.075 81.625 109.902 81.9574 109.646 82.2415C109.393 82.5227 109.069 82.7415 108.674 82.8977C108.279 83.0511 107.828 83.1278 107.319 83.1278ZM116.708 78.1847L115.302 78.3381C115.262 78.196 115.192 78.0625 115.093 77.9375C114.996 77.8125 114.866 77.7116 114.701 77.6349C114.536 77.5582 114.335 77.5199 114.096 77.5199C113.775 77.5199 113.505 77.5895 113.286 77.7287C113.07 77.8679 112.964 78.0483 112.967 78.2699C112.964 78.4602 113.033 78.6151 113.175 78.7344C113.32 78.8537 113.559 78.9517 113.891 79.0284L115.008 79.267C115.627 79.4006 116.087 79.6122 116.388 79.902C116.692 80.1918 116.846 80.571 116.849 81.0398C116.846 81.4517 116.725 81.8153 116.487 82.1307C116.251 82.4432 115.923 82.6875 115.502 82.8636C115.082 83.0398 114.599 83.1278 114.053 83.1278C113.252 83.1278 112.607 82.9602 112.119 82.625C111.63 82.2869 111.339 81.8168 111.245 81.2145L112.749 81.0696C112.817 81.3651 112.962 81.5881 113.184 81.7386C113.406 81.8892 113.694 81.9645 114.049 81.9645C114.415 81.9645 114.71 81.8892 114.931 81.7386C115.156 81.5881 115.268 81.402 115.268 81.1804C115.268 80.9929 115.195 80.8381 115.05 80.7159C114.908 80.5937 114.687 80.5 114.386 80.4347L113.269 80.2003C112.641 80.0696 112.177 79.8494 111.876 79.5398C111.575 79.2273 111.425 78.8324 111.428 78.3551C111.425 77.9517 111.535 77.6023 111.756 77.3068C111.981 77.0085 112.292 76.7784 112.69 76.6165C113.09 76.4517 113.552 76.3693 114.075 76.3693C114.842 76.3693 115.445 76.5327 115.886 76.8594C116.329 77.1861 116.603 77.6278 116.708 78.1847ZM123.294 78.1847L121.888 78.3381C121.848 78.196 121.778 78.0625 121.679 77.9375C121.582 77.8125 121.452 77.7116 121.287 77.6349C121.122 77.5582 120.92 77.5199 120.682 77.5199C120.361 77.5199 120.091 77.5895 119.872 77.7287C119.656 77.8679 119.55 78.0483 119.553 78.2699C119.55 78.4602 119.619 78.6151 119.761 78.7344C119.906 78.8537 120.145 78.9517 120.477 79.0284L121.594 79.267C122.213 79.4006 122.673 79.6122 122.974 79.902C123.278 80.1918 123.432 80.571 123.435 81.0398C123.432 81.4517 123.311 81.8153 123.072 82.1307C122.837 82.4432 122.509 82.6875 122.088 82.8636C121.668 83.0398 121.185 83.1278 120.639 83.1278C119.838 83.1278 119.193 82.9602 118.705 82.625C118.216 82.2869 117.925 81.8168 117.831 81.2145L119.335 81.0696C119.403 81.3651 119.548 81.5881 119.77 81.7386C119.991 81.8892 120.28 81.9645 120.635 81.9645C121.001 81.9645 121.295 81.8892 121.517 81.7386C121.741 81.5881 121.854 81.402 121.854 81.1804C121.854 80.9929 121.781 80.8381 121.636 80.7159C121.494 80.5937 121.273 80.5 120.972 80.4347L119.855 80.2003C119.227 80.0696 118.763 79.8494 118.462 79.5398C118.161 79.2273 118.011 78.8324 118.014 78.3551C118.011 77.9517 118.121 77.6023 118.342 77.3068C118.567 77.0085 118.878 76.7784 119.276 76.6165C119.676 76.4517 120.138 76.3693 120.661 76.3693C121.428 76.3693 122.031 76.5327 122.472 76.8594C122.915 77.1861 123.189 77.6278 123.294 78.1847ZM127.562 83.1278C126.923 83.1278 126.369 82.9872 125.9 82.706C125.431 82.4247 125.067 82.0312 124.809 81.5256C124.553 81.0199 124.425 80.429 124.425 79.7528C124.425 79.0767 124.553 78.4844 124.809 77.9759C125.067 77.4673 125.431 77.0724 125.9 76.7912C126.369 76.5099 126.923 76.3693 127.562 76.3693C128.201 76.3693 128.755 76.5099 129.224 76.7912C129.692 77.0724 130.055 77.4673 130.31 77.9759C130.569 78.4844 130.698 79.0767 130.698 79.7528C130.698 80.429 130.569 81.0199 130.31 81.5256C130.055 82.0312 129.692 82.4247 129.224 82.706C128.755 82.9872 128.201 83.1278 127.562 83.1278ZM127.57 81.892C127.917 81.892 128.207 81.7969 128.44 81.6065C128.673 81.4134 128.846 81.1548 128.96 80.831C129.076 80.5071 129.134 80.1463 129.134 79.7486C129.134 79.348 129.076 78.9858 128.96 78.6619C128.846 78.3352 128.673 78.0753 128.44 77.8821C128.207 77.6889 127.917 77.5923 127.57 77.5923C127.215 77.5923 126.92 77.6889 126.684 77.8821C126.451 78.0753 126.276 78.3352 126.16 78.6619C126.046 78.9858 125.989 79.348 125.989 79.7486C125.989 80.1463 126.046 80.5071 126.16 80.831C126.276 81.1548 126.451 81.4134 126.684 81.6065C126.92 81.7969 127.215 81.892 127.57 81.892ZM133.891 83.1321C133.476 83.1321 133.103 83.0582 132.77 82.9105C132.441 82.7599 132.179 82.5384 131.986 82.2457C131.796 81.9531 131.701 81.5923 131.701 81.1634C131.701 80.794 131.769 80.4886 131.905 80.2472C132.042 80.0057 132.228 79.8125 132.463 79.6676C132.699 79.5227 132.965 79.4134 133.26 79.3395C133.559 79.2628 133.867 79.2074 134.185 79.1733C134.569 79.1335 134.88 79.098 135.118 79.0668C135.357 79.0327 135.53 78.9815 135.638 78.9134C135.749 78.8423 135.804 78.733 135.804 78.5852V78.5597C135.804 78.2386 135.709 77.9901 135.519 77.8139C135.328 77.6378 135.054 77.5497 134.696 77.5497C134.319 77.5497 134.019 77.6321 133.797 77.7969C133.578 77.9616 133.431 78.1562 133.354 78.3807L131.914 78.1761C132.027 77.7784 132.215 77.446 132.476 77.179C132.738 76.9091 133.057 76.7074 133.435 76.5739C133.813 76.4375 134.23 76.3693 134.688 76.3693C135.003 76.3693 135.317 76.4062 135.63 76.4801C135.942 76.554 136.228 76.6761 136.486 76.8466C136.745 77.0142 136.952 77.2429 137.108 77.5327C137.267 77.8224 137.347 78.1847 137.347 78.6193V83H135.864V82.1009H135.813C135.719 82.2827 135.587 82.4531 135.417 82.6122C135.249 82.7685 135.037 82.8949 134.782 82.9915C134.529 83.0852 134.232 83.1321 133.891 83.1321ZM134.292 81.9986C134.601 81.9986 134.87 81.9375 135.097 81.8153C135.324 81.6903 135.499 81.5256 135.621 81.321C135.746 81.1165 135.809 80.8935 135.809 80.652V79.8807C135.76 79.9205 135.678 79.9574 135.561 79.9915C135.448 80.0256 135.32 80.0554 135.178 80.081C135.036 80.1065 134.895 80.1293 134.756 80.1491C134.617 80.169 134.496 80.1861 134.394 80.2003C134.164 80.2315 133.958 80.2827 133.776 80.3537C133.594 80.4247 133.451 80.5241 133.346 80.652C133.24 80.777 133.188 80.9389 133.188 81.1378C133.188 81.4219 133.292 81.6364 133.499 81.7812C133.706 81.9261 133.971 81.9986 134.292 81.9986ZM140.441 74.2727V83H138.898V74.2727H140.441Z" fill="black"/>
<path d="M74.3901 87.5C75.0757 87.5 75.708 87.1302 76.0442 86.5326V86.5326C76.3996 85.9007 76.3606 85.1205 75.8343 84.6219C74.7019 83.549 72.3225 81.875 68.5 81.875C64.6844 81.875 62.4217 83.543 61.3609 84.6161C60.8606 85.1221 60.8417 85.8853 61.1905 86.5054V86.5054" stroke="#131214" stroke-width="1.5" stroke-linecap="round" stroke-linejoin="round"/>
<path d="M68.625 77.5C70.8341 77.5 72.625 75.7091 72.625 73.5C72.625 71.2909 70.8341 69.5 68.625 69.5C66.4159 69.5 64.625 71.2909 64.625 73.5C64.625 75.7091 66.4159 77.5 68.625 77.5Z" stroke="#131214" stroke-width="1.5" stroke-linecap="round" stroke-linejoin="round"/>
<path d="M315 79L309.707 84.6854C309.317 85.1049 308.683 85.1049 308.293 84.6854L303 79M315 73L309.707 78.6854C309.317 79.1049 308.683 79.1049 308.293 78.6854L303 73" stroke="#131214" stroke-width="1.5" stroke-linecap="round"/>
<path d="M315 347L309.707 352.685C309.317 353.105 308.683 353.105 308.293 352.685L303 347M315 341L309.707 346.685C309.317 347.105 308.683 347.105 308.293 346.685L303 341" stroke="#131214" stroke-width="1.5" stroke-linecap="round"/>
<rect x="39" y="172" width="295" height="28" rx="10" fill="white"/>
<path d="M239.531 179.276C239.455 178.603 239.143 178.082 238.594 177.713C238.045 177.339 237.353 177.152 236.52 177.152C235.923 177.152 235.407 177.247 234.972 177.436C234.536 177.621 234.197 177.876 233.956 178.203C233.719 178.525 233.601 178.892 233.601 179.304C233.601 179.65 233.681 179.948 233.842 180.199C234.008 180.45 234.223 180.661 234.489 180.831C234.759 180.997 235.047 181.136 235.355 181.25C235.663 181.359 235.959 181.449 236.243 181.52L237.663 181.889C238.127 182.003 238.603 182.157 239.091 182.351C239.579 182.545 240.031 182.801 240.447 183.118C240.864 183.435 241.2 183.828 241.456 184.297C241.716 184.766 241.847 185.327 241.847 185.98C241.847 186.804 241.634 187.536 241.207 188.175C240.786 188.814 240.173 189.318 239.368 189.688C238.568 190.057 237.599 190.241 236.463 190.241C235.374 190.241 234.432 190.069 233.636 189.723C232.841 189.377 232.218 188.887 231.768 188.253C231.319 187.614 231.07 186.856 231.023 185.98H233.224C233.267 186.506 233.438 186.944 233.736 187.294C234.039 187.64 234.425 187.898 234.893 188.068C235.367 188.234 235.885 188.317 236.449 188.317C237.069 188.317 237.621 188.22 238.104 188.026C238.591 187.827 238.975 187.552 239.254 187.202C239.534 186.847 239.673 186.432 239.673 185.959C239.673 185.528 239.55 185.175 239.304 184.901C239.063 184.626 238.733 184.399 238.317 184.219C237.905 184.039 237.438 183.88 236.918 183.743L235.199 183.274C234.034 182.957 233.111 182.491 232.429 181.875C231.752 181.259 231.413 180.445 231.413 179.432C231.413 178.594 231.641 177.862 232.095 177.237C232.55 176.612 233.165 176.127 233.942 175.781C234.718 175.431 235.594 175.256 236.57 175.256C237.554 175.256 238.423 175.429 239.176 175.774C239.934 176.12 240.53 176.596 240.966 177.202C241.402 177.803 241.629 178.494 241.648 179.276H239.531ZM247.373 190.241C246.682 190.241 246.057 190.114 245.498 189.858C244.94 189.598 244.497 189.221 244.17 188.729C243.848 188.236 243.687 187.633 243.687 186.918C243.687 186.302 243.806 185.795 244.042 185.398C244.279 185 244.599 184.685 245.001 184.453C245.404 184.221 245.853 184.046 246.351 183.928C246.848 183.809 247.354 183.719 247.871 183.658C248.524 183.582 249.054 183.52 249.461 183.473C249.869 183.421 250.165 183.338 250.349 183.224C250.534 183.111 250.626 182.926 250.626 182.67V182.621C250.626 182 250.451 181.52 250.101 181.179C249.755 180.838 249.239 180.668 248.552 180.668C247.837 180.668 247.274 180.826 246.862 181.143C246.455 181.456 246.173 181.804 246.017 182.188L244.021 181.733C244.258 181.07 244.603 180.535 245.058 180.128C245.517 179.716 246.045 179.418 246.642 179.233C247.238 179.044 247.866 178.949 248.524 178.949C248.96 178.949 249.421 179.001 249.909 179.105C250.401 179.205 250.861 179.389 251.287 179.659C251.718 179.929 252.07 180.315 252.345 180.817C252.62 181.314 252.757 181.96 252.757 182.756V190H250.683V188.509H250.598C250.46 188.783 250.255 189.053 249.98 189.318C249.705 189.583 249.353 189.804 248.922 189.979C248.491 190.154 247.975 190.241 247.373 190.241ZM247.835 188.537C248.422 188.537 248.924 188.421 249.341 188.189C249.762 187.957 250.082 187.654 250.3 187.28C250.522 186.901 250.633 186.496 250.633 186.065V184.659C250.558 184.735 250.411 184.806 250.193 184.872C249.98 184.934 249.736 184.988 249.461 185.036C249.187 185.078 248.919 185.118 248.659 185.156C248.398 185.189 248.181 185.218 248.005 185.241C247.594 185.294 247.217 185.381 246.876 185.504C246.54 185.627 246.27 185.805 246.067 186.037C245.868 186.264 245.768 186.567 245.768 186.946C245.768 187.472 245.962 187.869 246.351 188.139C246.739 188.404 247.234 188.537 247.835 188.537ZM255.485 190V179.091H257.609V190H255.485ZM255.684 177.635L257.346 174.361H259.583L257.382 177.635H255.684ZM264.45 190.213C263.569 190.213 262.783 189.988 262.092 189.538C261.405 189.084 260.865 188.437 260.472 187.599C260.084 186.757 259.89 185.746 259.89 184.567C259.89 183.388 260.086 182.379 260.479 181.541C260.877 180.703 261.422 180.062 262.113 179.616C262.804 179.171 263.588 178.949 264.464 178.949C265.141 178.949 265.685 179.062 266.097 179.29C266.514 179.512 266.836 179.773 267.063 180.071C267.295 180.369 267.475 180.632 267.603 180.859H267.731V175.455H269.854V190H267.781V188.303H267.603C267.475 188.535 267.291 188.8 267.049 189.098C266.812 189.396 266.486 189.657 266.069 189.879C265.652 190.102 265.113 190.213 264.45 190.213ZM264.918 188.402C265.529 188.402 266.045 188.241 266.467 187.919C266.893 187.592 267.215 187.14 267.433 186.562C267.655 185.985 267.766 185.312 267.766 184.545C267.766 183.788 267.658 183.125 267.44 182.557C267.222 181.989 266.902 181.546 266.481 181.229C266.059 180.911 265.539 180.753 264.918 180.753C264.279 180.753 263.747 180.919 263.32 181.25C262.894 181.581 262.572 182.034 262.354 182.607C262.141 183.179 262.035 183.826 262.035 184.545C262.035 185.275 262.144 185.93 262.362 186.513C262.579 187.095 262.901 187.557 263.327 187.898C263.758 188.234 264.289 188.402 264.918 188.402ZM275.96 190.241C275.269 190.241 274.644 190.114 274.085 189.858C273.526 189.598 273.084 189.221 272.757 188.729C272.435 188.236 272.274 187.633 272.274 186.918C272.274 186.302 272.392 185.795 272.629 185.398C272.866 185 273.185 184.685 273.588 184.453C273.99 184.221 274.44 184.046 274.937 183.928C275.435 183.809 275.941 183.719 276.457 183.658C277.111 183.582 277.641 183.52 278.048 183.473C278.455 183.421 278.751 183.338 278.936 183.224C279.121 183.111 279.213 182.926 279.213 182.67V182.621C279.213 182 279.038 181.52 278.687 181.179C278.342 180.838 277.826 180.668 277.139 180.668C276.424 180.668 275.861 180.826 275.449 181.143C275.042 181.456 274.76 181.804 274.604 182.188L272.608 181.733C272.845 181.07 273.19 180.535 273.645 180.128C274.104 179.716 274.632 179.418 275.229 179.233C275.825 179.044 276.453 178.949 277.111 178.949C277.546 178.949 278.008 179.001 278.496 179.105C278.988 179.205 279.447 179.389 279.873 179.659C280.304 179.929 280.657 180.315 280.932 180.817C281.206 181.314 281.344 181.96 281.344 182.756V190H279.27V188.509H279.185C279.047 188.783 278.841 189.053 278.567 189.318C278.292 189.583 277.939 189.804 277.508 189.979C277.078 190.154 276.561 190.241 275.96 190.241ZM276.422 188.537C277.009 188.537 277.511 188.421 277.927 188.189C278.349 187.957 278.668 187.654 278.886 187.28C279.109 186.901 279.22 186.496 279.22 186.065V184.659C279.144 184.735 278.997 184.806 278.78 184.872C278.567 184.934 278.323 184.988 278.048 185.036C277.774 185.078 277.506 185.118 277.246 185.156C276.985 185.189 276.767 185.218 276.592 185.241C276.18 185.294 275.804 185.381 275.463 185.504C275.127 185.627 274.857 185.805 274.653 186.037C274.454 186.264 274.355 186.567 274.355 186.946C274.355 187.472 274.549 187.869 274.937 188.139C275.326 188.404 275.82 188.537 276.422 188.537Z" fill="black"/>
<path d="M66.3068 281H61.598V266.455H66.456C67.8812 266.455 69.1051 266.746 70.1278 267.328C71.1506 267.906 71.9342 268.737 72.4787 269.821C73.0279 270.901 73.3026 272.196 73.3026 273.706C73.3026 275.221 73.0256 276.523 72.4716 277.612C71.9223 278.701 71.1269 279.539 70.0852 280.126C69.0436 280.709 67.7841 281 66.3068 281ZM63.7926 279.082H66.1861C67.294 279.082 68.215 278.874 68.9489 278.457C69.6828 278.036 70.232 277.428 70.5966 276.632C70.9612 275.832 71.1435 274.857 71.1435 273.706C71.1435 272.565 70.9612 271.597 70.5966 270.801C70.2367 270.006 69.6993 269.402 68.9844 268.99C68.2694 268.578 67.3816 268.372 66.321 268.372H63.7926V279.082ZM80.4629 281.22C79.388 281.22 78.4624 280.991 77.6859 280.531C76.9141 280.067 76.3175 279.416 75.8961 278.578C75.4794 277.735 75.2711 276.748 75.2711 275.616C75.2711 274.499 75.4794 273.514 75.8961 272.662C76.3175 271.81 76.9046 271.144 77.6575 270.666C78.415 270.188 79.3004 269.949 80.3137 269.949C80.9292 269.949 81.5258 270.051 82.1035 270.254C82.6811 270.458 83.1996 270.777 83.6589 271.213C84.1182 271.649 84.4804 272.214 84.7455 272.911C85.0107 273.602 85.1433 274.442 85.1433 275.432V276.185H76.4714V274.594H83.0623C83.0623 274.035 82.9487 273.54 82.7214 273.109C82.4941 272.674 82.1745 272.33 81.7626 272.08C81.3554 271.829 80.8772 271.703 80.3279 271.703C79.7313 271.703 79.2105 271.85 78.7654 272.143C78.3251 272.432 77.9842 272.811 77.7427 273.28C77.5059 273.744 77.3876 274.248 77.3876 274.793V276.036C77.3876 276.765 77.5154 277.385 77.7711 277.896C78.0315 278.408 78.3937 278.798 78.8577 279.068C79.3218 279.333 79.8639 279.466 80.4842 279.466C80.8866 279.466 81.2536 279.409 81.585 279.295C81.9165 279.177 82.2029 279.002 82.4444 278.77C82.6859 278.538 82.8705 278.251 82.9984 277.911L85.0083 278.273C84.8473 278.865 84.5585 279.383 84.1418 279.828C83.7299 280.268 83.2114 280.612 82.5864 280.858C81.9662 281.099 81.2583 281.22 80.4629 281.22ZM95.5741 272.754L93.6494 273.095C93.5689 272.849 93.4411 272.615 93.2659 272.392C93.0955 272.17 92.8634 271.987 92.5699 271.845C92.2763 271.703 91.9094 271.632 91.469 271.632C90.8677 271.632 90.3658 271.767 89.9634 272.037C89.5609 272.302 89.3597 272.645 89.3597 273.067C89.3597 273.431 89.4946 273.725 89.7645 273.947C90.0344 274.17 90.47 274.352 91.0713 274.494L92.8043 274.892C93.808 275.124 94.5562 275.482 95.0486 275.964C95.541 276.447 95.7872 277.075 95.7872 277.847C95.7872 278.5 95.5978 279.082 95.219 279.594C94.845 280.1 94.3218 280.498 93.6494 280.787C92.9818 281.076 92.2077 281.22 91.327 281.22C90.1054 281.22 89.1087 280.96 88.3369 280.439C87.5652 279.913 87.0917 279.168 86.9165 278.202L88.969 277.889C89.0969 278.424 89.3597 278.829 89.7574 279.104C90.1551 279.374 90.6736 279.509 91.3128 279.509C92.0088 279.509 92.5652 279.364 92.9818 279.075C93.3985 278.782 93.6068 278.424 93.6068 278.003C93.6068 277.662 93.479 277.375 93.2233 277.143C92.9723 276.911 92.5865 276.736 92.0656 276.618L90.219 276.213C89.201 275.981 88.4482 275.612 87.9605 275.105C87.4776 274.598 87.2361 273.957 87.2361 273.18C87.2361 272.536 87.416 271.973 87.7759 271.49C88.1357 271.007 88.6329 270.631 89.2673 270.361C89.9018 270.086 90.6286 269.949 91.4477 269.949C92.6267 269.949 93.5547 270.205 94.2318 270.716C94.9089 271.223 95.3563 271.902 95.5741 272.754ZM102.617 281.22C101.561 281.22 100.652 280.981 99.89 280.503C99.1324 280.02 98.55 279.355 98.1428 278.507C97.7356 277.66 97.532 276.689 97.532 275.595C97.532 274.487 97.7404 273.509 98.157 272.662C98.5737 271.81 99.1608 271.144 99.9184 270.666C100.676 270.188 101.568 269.949 102.596 269.949C103.425 269.949 104.163 270.103 104.812 270.411C105.461 270.714 105.984 271.14 106.381 271.689C106.784 272.238 107.023 272.88 107.099 273.614H105.032C104.918 273.102 104.658 272.662 104.251 272.293C103.848 271.923 103.309 271.739 102.631 271.739C102.04 271.739 101.521 271.895 101.076 272.207C100.636 272.515 100.292 272.955 100.046 273.528C99.8 274.097 99.6769 274.769 99.6769 275.545C99.6769 276.341 99.7977 277.027 100.039 277.605C100.281 278.183 100.622 278.63 101.062 278.947C101.507 279.265 102.03 279.423 102.631 279.423C103.034 279.423 103.399 279.35 103.725 279.203C104.057 279.052 104.334 278.836 104.556 278.557C104.783 278.277 104.942 277.941 105.032 277.548H107.099C107.023 278.254 106.793 278.884 106.41 279.438C106.026 279.991 105.513 280.427 104.869 280.744C104.229 281.062 103.479 281.22 102.617 281.22ZM109.27 281V270.091H111.322V271.824H111.436C111.635 271.237 111.985 270.775 112.487 270.439C112.994 270.098 113.567 269.928 114.206 269.928C114.338 269.928 114.495 269.932 114.675 269.942C114.859 269.951 115.004 269.963 115.108 269.977V272.009C115.023 271.985 114.871 271.959 114.653 271.93C114.435 271.897 114.218 271.881 114 271.881C113.498 271.881 113.051 271.987 112.658 272.2C112.269 272.409 111.962 272.7 111.734 273.074C111.507 273.443 111.393 273.865 111.393 274.338V281H109.27ZM116.846 281V270.091H118.969V281H116.846ZM117.918 268.408C117.549 268.408 117.231 268.285 116.966 268.038C116.706 267.787 116.576 267.489 116.576 267.143C116.576 266.793 116.706 266.495 116.966 266.249C117.231 265.998 117.549 265.872 117.918 265.872C118.287 265.872 118.602 265.998 118.863 266.249C119.128 266.495 119.26 266.793 119.26 267.143C119.26 267.489 119.128 267.787 118.863 268.038C118.602 268.285 118.287 268.408 117.918 268.408ZM126.321 281.22C125.265 281.22 124.356 280.981 123.594 280.503C122.836 280.02 122.254 279.355 121.847 278.507C121.44 277.66 121.236 276.689 121.236 275.595C121.236 274.487 121.444 273.509 121.861 272.662C122.278 271.81 122.865 271.144 123.622 270.666C124.38 270.188 125.272 269.949 126.3 269.949C127.128 269.949 127.867 270.103 128.516 270.411C129.164 270.714 129.688 271.14 130.085 271.689C130.488 272.238 130.727 272.88 130.803 273.614H128.736C128.622 273.102 128.362 272.662 127.955 272.293C127.552 271.923 127.012 271.739 126.335 271.739C125.744 271.739 125.225 271.895 124.78 272.207C124.34 272.515 123.996 272.955 123.75 273.528C123.504 274.097 123.381 274.769 123.381 275.545C123.381 276.341 123.502 277.027 123.743 277.605C123.985 278.183 124.325 278.63 124.766 278.947C125.211 279.265 125.734 279.423 126.335 279.423C126.738 279.423 127.102 279.35 127.429 279.203C127.761 279.052 128.038 278.836 128.26 278.557C128.487 278.277 128.646 277.941 128.736 277.548H130.803C130.727 278.254 130.497 278.884 130.114 279.438C129.73 279.991 129.217 280.427 128.573 280.744C127.933 281.062 127.183 281.22 126.321 281.22ZM125.554 280.943H126.946L126.833 281.526C127.244 281.592 127.604 281.758 127.912 282.023C128.22 282.288 128.374 282.688 128.374 283.223C128.378 283.862 128.101 284.381 127.543 284.778C126.989 285.176 126.186 285.375 125.135 285.375L125.092 284.189C125.585 284.189 125.983 284.118 126.286 283.976C126.593 283.834 126.75 283.604 126.754 283.287C126.759 282.97 126.641 282.747 126.399 282.619C126.163 282.491 125.784 282.402 125.263 282.349L125.554 280.943ZM136.148 281.241C135.457 281.241 134.832 281.114 134.273 280.858C133.715 280.598 133.272 280.221 132.945 279.729C132.623 279.236 132.462 278.633 132.462 277.918C132.462 277.302 132.581 276.795 132.817 276.398C133.054 276 133.374 275.685 133.776 275.453C134.179 275.221 134.628 275.046 135.126 274.928C135.623 274.809 136.129 274.719 136.646 274.658C137.299 274.582 137.829 274.52 138.236 274.473C138.644 274.421 138.94 274.338 139.124 274.224C139.309 274.111 139.401 273.926 139.401 273.67V273.621C139.401 273 139.226 272.52 138.876 272.179C138.53 271.838 138.014 271.668 137.327 271.668C136.612 271.668 136.049 271.826 135.637 272.143C135.23 272.456 134.948 272.804 134.792 273.188L132.796 272.733C133.033 272.07 133.378 271.535 133.833 271.128C134.292 270.716 134.82 270.418 135.417 270.233C136.013 270.044 136.641 269.949 137.299 269.949C137.735 269.949 138.196 270.001 138.684 270.105C139.176 270.205 139.636 270.389 140.062 270.659C140.493 270.929 140.845 271.315 141.12 271.817C141.395 272.314 141.532 272.96 141.532 273.756V281H139.458V279.509H139.373C139.235 279.783 139.03 280.053 138.755 280.318C138.48 280.583 138.128 280.804 137.697 280.979C137.266 281.154 136.75 281.241 136.148 281.241ZM136.61 279.537C137.197 279.537 137.699 279.421 138.116 279.189C138.537 278.957 138.857 278.654 139.075 278.28C139.297 277.901 139.408 277.496 139.408 277.065V275.659C139.333 275.735 139.186 275.806 138.968 275.872C138.755 275.934 138.511 275.988 138.236 276.036C137.962 276.078 137.694 276.118 137.434 276.156C137.173 276.189 136.956 276.218 136.78 276.241C136.369 276.294 135.992 276.381 135.651 276.504C135.315 276.627 135.045 276.805 134.842 277.037C134.643 277.264 134.543 277.567 134.543 277.946C134.543 278.472 134.737 278.869 135.126 279.139C135.514 279.404 136.009 279.537 136.61 279.537ZM135.275 268.77L133.847 268.727C133.847 267.941 134.058 267.314 134.479 266.845C134.905 266.376 135.431 266.142 136.056 266.142C136.345 266.142 136.598 266.192 136.816 266.291C137.034 266.386 137.237 266.497 137.427 266.625C137.621 266.748 137.813 266.859 138.002 266.959C138.196 267.054 138.412 267.101 138.648 267.101C138.923 267.101 139.146 266.997 139.316 266.788C139.491 266.58 139.579 266.322 139.579 266.014L140.978 266.107C140.978 266.897 140.765 267.52 140.339 267.974C139.913 268.424 139.389 268.652 138.769 268.656C138.433 268.656 138.154 268.609 137.931 268.514C137.713 268.415 137.519 268.304 137.349 268.18C137.178 268.053 137.003 267.939 136.823 267.839C136.643 267.74 136.428 267.69 136.177 267.69C135.912 267.69 135.694 267.795 135.523 268.003C135.358 268.206 135.275 268.462 135.275 268.77ZM148.856 281.22C147.833 281.22 146.94 280.986 146.178 280.517C145.416 280.048 144.824 279.393 144.402 278.55C143.981 277.707 143.77 276.722 143.77 275.595C143.77 274.464 143.981 273.474 144.402 272.626C144.824 271.779 145.416 271.121 146.178 270.652C146.94 270.183 147.833 269.949 148.856 269.949C149.878 269.949 150.771 270.183 151.533 270.652C152.295 271.121 152.887 271.779 153.309 272.626C153.73 273.474 153.941 274.464 153.941 275.595C153.941 276.722 153.73 277.707 153.309 278.55C152.887 279.393 152.295 280.048 151.533 280.517C150.771 280.986 149.878 281.22 148.856 281.22ZM148.863 279.438C149.526 279.438 150.075 279.262 150.51 278.912C150.946 278.562 151.268 278.095 151.476 277.513C151.689 276.93 151.796 276.289 151.796 275.588C151.796 274.892 151.689 274.253 151.476 273.67C151.268 273.083 150.946 272.612 150.51 272.257C150.075 271.902 149.526 271.724 148.863 271.724C148.195 271.724 147.641 271.902 147.201 272.257C146.765 272.612 146.441 273.083 146.228 273.67C146.019 274.253 145.915 274.892 145.915 275.588C145.915 276.289 146.019 276.93 146.228 277.513C146.441 278.095 146.765 278.562 147.201 278.912C147.641 279.262 148.195 279.438 148.863 279.438Z" fill="black"/>
<path d="M72.679 343.185H70.4631C70.3778 342.711 70.2192 342.295 69.9872 341.935C69.7552 341.575 69.4711 341.269 69.1349 341.018C68.7988 340.768 68.4223 340.578 68.0057 340.45C67.5938 340.322 67.1558 340.259 66.6918 340.259C65.8537 340.259 65.1032 340.469 64.4403 340.891C63.7822 341.312 63.2614 341.93 62.8778 342.744C62.4991 343.559 62.3097 344.553 62.3097 345.727C62.3097 346.911 62.4991 347.91 62.8778 348.724C63.2614 349.539 63.7846 350.154 64.4474 350.571C65.1103 350.988 65.8561 351.196 66.6847 351.196C67.1439 351.196 67.5795 351.134 67.9915 351.011C68.4081 350.884 68.7846 350.696 69.1207 350.45C69.4569 350.204 69.741 349.903 69.973 349.548C70.2098 349.188 70.3731 348.777 70.4631 348.312L72.679 348.32C72.5606 349.035 72.331 349.693 71.9901 350.294C71.6539 350.891 71.2206 351.407 70.6903 351.842C70.1648 352.273 69.5634 352.607 68.8864 352.844C68.2093 353.08 67.4706 353.199 66.6705 353.199C65.411 353.199 64.2888 352.901 63.304 352.304C62.3191 351.703 61.5426 350.843 60.9744 349.726C60.411 348.608 60.1293 347.276 60.1293 345.727C60.1293 344.174 60.4134 342.841 60.9815 341.729C61.5497 340.611 62.3262 339.754 63.3111 339.158C64.2959 338.556 65.4157 338.256 66.6705 338.256C67.4422 338.256 68.1619 338.367 68.8295 338.589C69.5019 338.807 70.1056 339.129 70.6406 339.555C71.1757 339.977 71.6184 340.493 71.9688 341.104C72.3191 341.71 72.5559 342.403 72.679 343.185ZM78.2093 353.241C77.518 353.241 76.893 353.114 76.3343 352.858C75.7756 352.598 75.3329 352.221 75.0062 351.729C74.6842 351.236 74.5232 350.633 74.5232 349.918C74.5232 349.302 74.6416 348.795 74.8783 348.398C75.1151 348 75.4347 347.685 75.8371 347.453C76.2396 347.221 76.6894 347.046 77.1866 346.928C77.6837 346.809 78.1904 346.719 78.7065 346.658C79.3599 346.582 79.8902 346.52 80.2974 346.473C80.7046 346.421 81.0005 346.338 81.1852 346.224C81.3698 346.111 81.4621 345.926 81.4621 345.67V345.621C81.4621 345 81.287 344.52 80.9366 344.179C80.5909 343.838 80.0748 343.668 79.3883 343.668C78.6733 343.668 78.1099 343.826 77.6979 344.143C77.2907 344.456 77.009 344.804 76.8528 345.188L74.857 344.733C75.0938 344.07 75.4394 343.535 75.894 343.128C76.3532 342.716 76.8812 342.418 77.4778 342.233C78.0744 342.044 78.7017 341.949 79.3599 341.949C79.7955 341.949 80.2571 342.001 80.7448 342.105C81.2372 342.205 81.6965 342.389 82.1227 342.659C82.5535 342.929 82.9063 343.315 83.1809 343.817C83.4555 344.314 83.5928 344.96 83.5928 345.756V353H81.519V351.509H81.4337C81.2964 351.783 81.0905 352.053 80.8158 352.318C80.5412 352.583 80.1885 352.804 79.7576 352.979C79.3267 353.154 78.8106 353.241 78.2093 353.241ZM78.671 351.537C79.2581 351.537 79.76 351.421 80.1766 351.189C80.598 350.957 80.9176 350.654 81.1354 350.28C81.358 349.901 81.4692 349.496 81.4692 349.065V347.659C81.3935 347.735 81.2467 347.806 81.0289 347.872C80.8158 347.934 80.572 347.988 80.2974 348.036C80.0228 348.078 79.7552 348.118 79.4948 348.156C79.2344 348.189 79.0166 348.218 78.8414 348.241C78.4295 348.294 78.0531 348.381 77.7121 348.504C77.376 348.627 77.1061 348.805 76.9025 349.037C76.7036 349.264 76.6042 349.567 76.6042 349.946C76.6042 350.472 76.7983 350.869 77.1866 351.139C77.5748 351.404 78.0696 351.537 78.671 351.537ZM91.4136 342.091V343.795H85.4548V342.091H91.4136ZM87.0528 339.477H89.1764V349.797C89.1764 350.209 89.238 350.519 89.3611 350.727C89.4842 350.931 89.6428 351.071 89.8369 351.146C90.0358 351.217 90.2512 351.253 90.4832 351.253C90.6537 351.253 90.8028 351.241 90.9307 351.217C91.0585 351.194 91.158 351.175 91.229 351.161L91.6125 352.915C91.4894 352.962 91.3142 353.009 91.0869 353.057C90.8597 353.109 90.5756 353.137 90.2347 353.142C89.6759 353.152 89.1551 353.052 88.6722 352.844C88.1892 352.635 87.7986 352.313 87.5003 351.878C87.202 351.442 87.0528 350.895 87.0528 350.237V339.477ZM98.2472 353.22C97.1724 353.22 96.2468 352.991 95.4702 352.531C94.6985 352.067 94.1019 351.416 93.6805 350.578C93.2638 349.735 93.0555 348.748 93.0555 347.616C93.0555 346.499 93.2638 345.514 93.6805 344.662C94.1019 343.81 94.689 343.144 95.4418 342.666C96.1994 342.188 97.0848 341.949 98.0981 341.949C98.7136 341.949 99.3102 342.051 99.8879 342.254C100.466 342.458 100.984 342.777 101.443 343.213C101.903 343.649 102.265 344.214 102.53 344.911C102.795 345.602 102.928 346.442 102.928 347.432V348.185H94.2558V346.594H100.847C100.847 346.035 100.733 345.54 100.506 345.109C100.278 344.674 99.9589 344.33 99.5469 344.08C99.1397 343.829 98.6615 343.703 98.1123 343.703C97.5157 343.703 96.9949 343.85 96.5498 344.143C96.1094 344.432 95.7685 344.811 95.5271 345.28C95.2903 345.744 95.1719 346.248 95.1719 346.793V348.036C95.1719 348.765 95.2998 349.385 95.5555 349.896C95.8159 350.408 96.1781 350.798 96.6421 351.068C97.1061 351.333 97.6483 351.466 98.2685 351.466C98.671 351.466 99.038 351.409 99.3694 351.295C99.7008 351.177 99.9873 351.002 100.229 350.77C100.47 350.538 100.655 350.251 100.783 349.911L102.793 350.273C102.632 350.865 102.343 351.383 101.926 351.828C101.514 352.268 100.996 352.612 100.371 352.858C99.7505 353.099 99.0427 353.22 98.2472 353.22ZM109.758 357.318C108.891 357.318 108.145 357.205 107.52 356.977C106.9 356.75 106.394 356.449 106.001 356.075C105.608 355.701 105.314 355.292 105.12 354.847L106.945 354.094C107.073 354.302 107.243 354.522 107.457 354.754C107.674 354.991 107.968 355.192 108.337 355.358C108.711 355.524 109.192 355.607 109.779 355.607C110.584 355.607 111.249 355.41 111.775 355.017C112.3 354.629 112.563 354.009 112.563 353.156V351.011H112.428C112.3 351.243 112.116 351.501 111.874 351.786C111.637 352.07 111.311 352.316 110.894 352.524C110.477 352.732 109.935 352.837 109.268 352.837C108.406 352.837 107.629 352.635 106.938 352.233C106.252 351.826 105.707 351.227 105.305 350.436C104.907 349.641 104.708 348.663 104.708 347.503C104.708 346.343 104.904 345.348 105.297 344.52C105.695 343.691 106.24 343.057 106.931 342.616C107.622 342.171 108.406 341.949 109.282 341.949C109.959 341.949 110.506 342.062 110.922 342.29C111.339 342.512 111.663 342.773 111.895 343.071C112.132 343.369 112.314 343.632 112.442 343.859H112.599V342.091H114.68V353.241C114.68 354.179 114.462 354.948 114.026 355.55C113.591 356.151 113.001 356.596 112.258 356.885C111.519 357.174 110.686 357.318 109.758 357.318ZM109.736 351.075C110.347 351.075 110.863 350.933 111.285 350.649C111.711 350.36 112.033 349.948 112.251 349.413C112.473 348.874 112.584 348.227 112.584 347.474C112.584 346.741 112.475 346.094 112.258 345.536C112.04 344.977 111.72 344.541 111.299 344.229C110.877 343.911 110.357 343.753 109.736 343.753C109.097 343.753 108.564 343.919 108.138 344.25C107.712 344.577 107.39 345.022 107.172 345.585C106.959 346.149 106.853 346.778 106.853 347.474C106.853 348.189 106.962 348.817 107.18 349.357C107.397 349.896 107.719 350.318 108.145 350.621C108.576 350.924 109.107 351.075 109.736 351.075ZM122.023 353.22C121 353.22 120.107 352.986 119.345 352.517C118.583 352.048 117.991 351.393 117.57 350.55C117.148 349.707 116.938 348.722 116.938 347.595C116.938 346.464 117.148 345.474 117.57 344.626C117.991 343.779 118.583 343.121 119.345 342.652C120.107 342.183 121 341.949 122.023 341.949C123.045 341.949 123.938 342.183 124.7 342.652C125.463 343.121 126.054 343.779 126.476 344.626C126.897 345.474 127.108 346.464 127.108 347.595C127.108 348.722 126.897 349.707 126.476 350.55C126.054 351.393 125.463 352.048 124.7 352.517C123.938 352.986 123.045 353.22 122.023 353.22ZM122.03 351.438C122.693 351.438 123.242 351.262 123.678 350.912C124.113 350.562 124.435 350.095 124.643 349.513C124.857 348.93 124.963 348.289 124.963 347.588C124.963 346.892 124.857 346.253 124.643 345.67C124.435 345.083 124.113 344.612 123.678 344.257C123.242 343.902 122.693 343.724 122.03 343.724C121.362 343.724 120.808 343.902 120.368 344.257C119.932 344.612 119.608 345.083 119.395 345.67C119.187 346.253 119.082 346.892 119.082 347.588C119.082 348.289 119.187 348.93 119.395 349.513C119.608 350.095 119.932 350.562 120.368 350.912C120.808 351.262 121.362 351.438 122.03 351.438ZM129.378 353V342.091H131.431V343.824H131.545C131.743 343.237 132.094 342.775 132.596 342.439C133.102 342.098 133.675 341.928 134.314 341.928C134.447 341.928 134.603 341.932 134.783 341.942C134.968 341.951 135.112 341.963 135.216 341.977V344.009C135.131 343.985 134.98 343.959 134.762 343.93C134.544 343.897 134.326 343.881 134.108 343.881C133.607 343.881 133.159 343.987 132.766 344.2C132.378 344.409 132.07 344.7 131.843 345.074C131.616 345.443 131.502 345.865 131.502 346.338V353H129.378ZM136.954 353V342.091H139.078V353H136.954ZM138.027 340.408C137.657 340.408 137.34 340.285 137.075 340.038C136.814 339.787 136.684 339.489 136.684 339.143C136.684 338.793 136.814 338.495 137.075 338.249C137.34 337.998 137.657 337.872 138.027 337.872C138.396 337.872 138.711 337.998 138.971 338.249C139.236 338.495 139.369 338.793 139.369 339.143C139.369 339.489 139.236 339.787 138.971 340.038C138.711 340.285 138.396 340.408 138.027 340.408ZM145.009 353.241C144.318 353.241 143.693 353.114 143.134 352.858C142.576 352.598 142.133 352.221 141.806 351.729C141.484 351.236 141.323 350.633 141.323 349.918C141.323 349.302 141.442 348.795 141.678 348.398C141.915 348 142.235 347.685 142.637 347.453C143.04 347.221 143.489 347.046 143.987 346.928C144.484 346.809 144.99 346.719 145.506 346.658C146.16 346.582 146.69 346.52 147.097 346.473C147.505 346.421 147.8 346.338 147.985 346.224C148.17 346.111 148.262 345.926 148.262 345.67V345.621C148.262 345 148.087 344.52 147.737 344.179C147.391 343.838 146.875 343.668 146.188 343.668C145.473 343.668 144.91 343.826 144.498 344.143C144.091 344.456 143.809 344.804 143.653 345.188L141.657 344.733C141.894 344.07 142.239 343.535 142.694 343.128C143.153 342.716 143.681 342.418 144.278 342.233C144.874 342.044 145.502 341.949 146.16 341.949C146.595 341.949 147.057 342.001 147.545 342.105C148.037 342.205 148.497 342.389 148.923 342.659C149.354 342.929 149.706 343.315 149.981 343.817C150.256 344.314 150.393 344.96 150.393 345.756V353H148.319V351.509H148.234C148.096 351.783 147.89 352.053 147.616 352.318C147.341 352.583 146.988 352.804 146.558 352.979C146.127 353.154 145.611 353.241 145.009 353.241ZM145.471 351.537C146.058 351.537 146.56 351.421 146.977 351.189C147.398 350.957 147.718 350.654 147.935 350.28C148.158 349.901 148.269 349.496 148.269 349.065V347.659C148.193 347.735 148.047 347.806 147.829 347.872C147.616 347.934 147.372 347.988 147.097 348.036C146.823 348.078 146.555 348.118 146.295 348.156C146.034 348.189 145.817 348.218 145.641 348.241C145.229 348.294 144.853 348.381 144.512 348.504C144.176 348.627 143.906 348.805 143.702 349.037C143.504 349.264 143.404 349.567 143.404 349.946C143.404 350.472 143.598 350.869 143.987 351.139C144.375 351.404 144.87 351.537 145.471 351.537Z" fill="black"/>
<rect x="38" y="400" width="294" height="51" rx="25.5" stroke="black" stroke-width="2"/>
<rect x="178" y="419" width="105" height="3" fill="#9CABC2"/>
<rect x="178" y="432" width="105" height="3" fill="#9CABC2"/>
<path d="M315 426L309.707 431.685C309.317 432.105 308.683 432.105 308.293 431.685L303 426M315 420L309.707 425.685C309.317 426.105 308.683 426.105 308.293 425.685L303 420" stroke="#131214" stroke-width="1.5" stroke-linecap="round"/>
<path d="M65.3068 432H60.598V417.455H65.456C66.8812 417.455 68.1051 417.746 69.1278 418.328C70.1506 418.906 70.9342 419.737 71.4787 420.821C72.0279 421.901 72.3026 423.196 72.3026 424.706C72.3026 426.221 72.0256 427.523 71.4716 428.612C70.9223 429.701 70.1269 430.539 69.0852 431.126C68.0436 431.709 66.7841 432 65.3068 432ZM62.7926 430.082H65.1861C66.294 430.082 67.215 429.874 67.9489 429.457C68.6828 429.036 69.232 428.428 69.5966 427.632C69.9612 426.832 70.1435 425.857 70.1435 424.706C70.1435 423.565 69.9612 422.597 69.5966 421.801C69.2367 421.006 68.6993 420.402 67.9844 419.99C67.2694 419.578 66.3816 419.372 65.321 419.372H62.7926V430.082ZM74.7612 432V421.091H76.8847V432H74.7612ZM75.8336 419.408C75.4643 419.408 75.147 419.285 74.8819 419.038C74.6215 418.787 74.4913 418.489 74.4913 418.143C74.4913 417.793 74.6215 417.495 74.8819 417.249C75.147 416.998 75.4643 416.872 75.8336 416.872C76.2029 416.872 76.5178 416.998 76.7782 417.249C77.0433 417.495 77.1759 417.793 77.1759 418.143C77.1759 418.489 77.0433 418.787 76.7782 419.038C76.5178 419.285 76.2029 419.408 75.8336 419.408ZM88.974 421.091L85.018 432H82.7453L78.7822 421.091H81.0621L83.8249 429.486H83.9385L86.6942 421.091H88.974ZM90.8697 432V421.091H92.9933V432H90.8697ZM91.9422 419.408C91.5729 419.408 91.2556 419.285 90.9905 419.038C90.7301 418.787 90.5999 418.489 90.5999 418.143C90.5999 417.793 90.7301 417.495 90.9905 417.249C91.2556 416.998 91.5729 416.872 91.9422 416.872C92.3115 416.872 92.6264 416.998 92.8868 417.249C93.1519 417.495 93.2845 417.793 93.2845 418.143C93.2845 418.489 93.1519 418.787 92.8868 419.038C92.6264 419.285 92.3115 419.408 91.9422 419.408ZM99.834 432.213C98.9533 432.213 98.1674 431.988 97.4761 431.538C96.7895 431.084 96.2497 430.437 95.8567 429.599C95.4685 428.757 95.2744 427.746 95.2744 426.567C95.2744 425.388 95.4709 424.379 95.8638 423.541C96.2616 422.703 96.8061 422.062 97.4974 421.616C98.1887 421.171 98.9723 420.949 99.8482 420.949C100.525 420.949 101.07 421.062 101.482 421.29C101.898 421.512 102.22 421.773 102.448 422.071C102.68 422.369 102.86 422.632 102.987 422.859H103.115V417.455H105.239V432H103.165V430.303H102.987C102.86 430.535 102.675 430.8 102.433 431.098C102.197 431.396 101.87 431.657 101.453 431.879C101.037 432.102 100.497 432.213 99.834 432.213ZM100.303 430.402C100.914 430.402 101.43 430.241 101.851 429.919C102.277 429.592 102.599 429.14 102.817 428.562C103.04 427.985 103.151 427.312 103.151 426.545C103.151 425.788 103.042 425.125 102.824 424.557C102.606 423.989 102.287 423.546 101.865 423.229C101.444 422.911 100.923 422.753 100.303 422.753C99.6636 422.753 99.1309 422.919 98.7048 423.25C98.2786 423.581 97.9567 424.034 97.7388 424.607C97.5258 425.179 97.4192 425.826 97.4192 426.545C97.4192 427.275 97.5281 427.93 97.746 428.513C97.9638 429.095 98.2857 429.557 98.7119 429.898C99.1427 430.234 99.673 430.402 100.303 430.402ZM108.17 432V421.091H110.293V432H108.17ZM109.242 419.408C108.873 419.408 108.556 419.285 108.29 419.038C108.03 418.787 107.9 418.489 107.9 418.143C107.9 417.793 108.03 417.495 108.29 417.249C108.556 416.998 108.873 416.872 109.242 416.872C109.612 416.872 109.926 416.998 110.187 417.249C110.452 417.495 110.585 417.793 110.585 418.143C110.585 418.489 110.452 418.787 110.187 419.038C109.926 419.285 109.612 419.408 109.242 419.408ZM113.05 432V421.091H115.103V422.824H115.216C115.415 422.237 115.766 421.775 116.268 421.439C116.774 421.098 117.347 420.928 117.986 420.928C118.119 420.928 118.275 420.932 118.455 420.942C118.64 420.951 118.784 420.963 118.888 420.977V423.009C118.803 422.985 118.652 422.959 118.434 422.93C118.216 422.897 117.998 422.881 117.78 422.881C117.278 422.881 116.831 422.987 116.438 423.2C116.05 423.409 115.742 423.7 115.515 424.074C115.287 424.443 115.174 424.865 115.174 425.338V432H113.05ZM130.414 432.22C129.358 432.22 128.449 431.981 127.687 431.503C126.929 431.02 126.347 430.355 125.94 429.507C125.533 428.66 125.329 427.689 125.329 426.595C125.329 425.487 125.537 424.509 125.954 423.662C126.371 422.81 126.958 422.144 127.715 421.666C128.473 421.188 129.365 420.949 130.393 420.949C131.221 420.949 131.96 421.103 132.609 421.411C133.257 421.714 133.781 422.14 134.178 422.689C134.581 423.238 134.82 423.88 134.896 424.614H132.829C132.715 424.102 132.455 423.662 132.048 423.293C131.645 422.923 131.105 422.739 130.428 422.739C129.836 422.739 129.318 422.895 128.873 423.207C128.433 423.515 128.089 423.955 127.843 424.528C127.597 425.097 127.474 425.769 127.474 426.545C127.474 427.341 127.595 428.027 127.836 428.605C128.077 429.183 128.418 429.63 128.859 429.947C129.304 430.265 129.827 430.423 130.428 430.423C130.831 430.423 131.195 430.35 131.522 430.203C131.854 430.052 132.131 429.836 132.353 429.557C132.58 429.277 132.739 428.941 132.829 428.548H134.896C134.82 429.254 134.59 429.884 134.207 430.438C133.823 430.991 133.309 431.427 132.666 431.744C132.026 432.062 131.276 432.22 130.414 432.22ZM141.662 432.22C140.639 432.22 139.747 431.986 138.984 431.517C138.222 431.048 137.63 430.393 137.209 429.55C136.787 428.707 136.577 427.722 136.577 426.595C136.577 425.464 136.787 424.474 137.209 423.626C137.63 422.779 138.222 422.121 138.984 421.652C139.747 421.183 140.639 420.949 141.662 420.949C142.685 420.949 143.577 421.183 144.339 421.652C145.102 422.121 145.694 422.779 146.115 423.626C146.536 424.474 146.747 425.464 146.747 426.595C146.747 427.722 146.536 428.707 146.115 429.55C145.694 430.393 145.102 431.048 144.339 431.517C143.577 431.986 142.685 432.22 141.662 432.22ZM141.669 430.438C142.332 430.438 142.881 430.262 143.317 429.912C143.752 429.562 144.074 429.095 144.283 428.513C144.496 427.93 144.602 427.289 144.602 426.588C144.602 425.892 144.496 425.253 144.283 424.67C144.074 424.083 143.752 423.612 143.317 423.257C142.881 422.902 142.332 422.724 141.669 422.724C141.001 422.724 140.447 422.902 140.007 423.257C139.571 423.612 139.247 424.083 139.034 424.67C138.826 425.253 138.721 425.892 138.721 426.588C138.721 427.289 138.826 427.93 139.034 428.513C139.247 429.095 139.571 429.562 140.007 429.912C140.447 430.262 141.001 430.438 141.669 430.438ZM149.017 432V421.091H151.056V422.866H151.191C151.418 422.265 151.79 421.796 152.306 421.46C152.822 421.119 153.44 420.949 154.159 420.949C154.889 420.949 155.499 421.119 155.992 421.46C156.489 421.801 156.856 422.27 157.093 422.866H157.206C157.467 422.284 157.881 421.82 158.449 421.474C159.017 421.124 159.694 420.949 160.48 420.949C161.47 420.949 162.277 421.259 162.902 421.879C163.532 422.5 163.847 423.435 163.847 424.685V432H161.723V424.884C161.723 424.145 161.522 423.61 161.12 423.278C160.717 422.947 160.237 422.781 159.678 422.781C158.987 422.781 158.449 422.994 158.066 423.42C157.682 423.842 157.49 424.384 157.49 425.047V432H155.374V424.749C155.374 424.157 155.189 423.681 154.82 423.321C154.451 422.961 153.97 422.781 153.378 422.781C152.976 422.781 152.604 422.888 152.263 423.101C151.927 423.309 151.655 423.6 151.446 423.974C151.243 424.348 151.141 424.782 151.141 425.274V432H149.017Z" fill="black"/>
<path d="M127.598 511V496.455H132.783C133.91 496.455 134.845 496.649 135.588 497.037C136.336 497.425 136.895 497.963 137.264 498.649C137.634 499.331 137.818 500.119 137.818 501.014C137.818 501.904 137.631 502.688 137.257 503.365C136.888 504.037 136.329 504.561 135.581 504.935C134.838 505.309 133.902 505.496 132.776 505.496H128.848V503.607H132.577C133.287 503.607 133.865 503.505 134.31 503.301C134.759 503.098 135.089 502.802 135.297 502.413C135.505 502.025 135.609 501.559 135.609 501.014C135.609 500.465 135.503 499.989 135.29 499.587C135.081 499.184 134.752 498.876 134.303 498.663C133.857 498.446 133.273 498.337 132.548 498.337H129.793V511H127.598ZM134.778 504.438L138.372 511H135.872L132.349 504.438H134.778ZM144.783 511.22C143.708 511.22 142.783 510.991 142.006 510.531C141.234 510.067 140.638 509.416 140.216 508.578C139.8 507.735 139.591 506.748 139.591 505.616C139.591 504.499 139.8 503.514 140.216 502.662C140.638 501.81 141.225 501.144 141.978 500.666C142.735 500.188 143.621 499.949 144.634 499.949C145.25 499.949 145.846 500.051 146.424 500.254C147.001 500.458 147.52 500.777 147.979 501.213C148.438 501.649 148.801 502.214 149.066 502.911C149.331 503.602 149.464 504.442 149.464 505.432V506.185H140.792V504.594H147.383C147.383 504.035 147.269 503.54 147.042 503.109C146.814 502.674 146.495 502.33 146.083 502.08C145.676 501.829 145.197 501.703 144.648 501.703C144.052 501.703 143.531 501.85 143.086 502.143C142.645 502.432 142.304 502.811 142.063 503.28C141.826 503.744 141.708 504.248 141.708 504.793V506.036C141.708 506.765 141.836 507.385 142.091 507.896C142.352 508.408 142.714 508.798 143.178 509.068C143.642 509.333 144.184 509.466 144.804 509.466C145.207 509.466 145.574 509.409 145.905 509.295C146.237 509.177 146.523 509.002 146.765 508.77C147.006 508.538 147.191 508.251 147.319 507.911L149.329 508.273C149.168 508.865 148.879 509.383 148.462 509.828C148.05 510.268 147.532 510.612 146.907 510.858C146.286 511.099 145.579 511.22 144.783 511.22ZM156.315 511.22C155.259 511.22 154.35 510.981 153.588 510.503C152.83 510.02 152.248 509.355 151.84 508.507C151.433 507.66 151.23 506.689 151.23 505.595C151.23 504.487 151.438 503.509 151.855 502.662C152.271 501.81 152.858 501.144 153.616 500.666C154.374 500.188 155.266 499.949 156.294 499.949C157.122 499.949 157.861 500.103 158.51 500.411C159.158 500.714 159.681 501.14 160.079 501.689C160.482 502.238 160.721 502.88 160.796 503.614H158.73C158.616 503.102 158.356 502.662 157.948 502.293C157.546 501.923 157.006 501.739 156.329 501.739C155.737 501.739 155.219 501.895 154.774 502.207C154.333 502.515 153.99 502.955 153.744 503.528C153.498 504.097 153.375 504.769 153.375 505.545C153.375 506.341 153.495 507.027 153.737 507.605C153.978 508.183 154.319 508.63 154.76 508.947C155.205 509.265 155.728 509.423 156.329 509.423C156.732 509.423 157.096 509.35 157.423 509.203C157.754 509.052 158.031 508.836 158.254 508.557C158.481 508.277 158.64 507.941 158.73 507.548H160.796C160.721 508.254 160.491 508.884 160.108 509.438C159.724 509.991 159.21 510.427 158.566 510.744C157.927 511.062 157.177 511.22 156.315 511.22ZM167.563 511.22C166.54 511.22 165.647 510.986 164.885 510.517C164.123 510.048 163.531 509.393 163.109 508.55C162.688 507.707 162.477 506.722 162.477 505.595C162.477 504.464 162.688 503.474 163.109 502.626C163.531 501.779 164.123 501.121 164.885 500.652C165.647 500.183 166.54 499.949 167.563 499.949C168.585 499.949 169.478 500.183 170.24 500.652C171.002 501.121 171.594 501.779 172.016 502.626C172.437 503.474 172.648 504.464 172.648 505.595C172.648 506.722 172.437 507.707 172.016 508.55C171.594 509.393 171.002 510.048 170.24 510.517C169.478 510.986 168.585 511.22 167.563 511.22ZM167.57 509.438C168.233 509.438 168.782 509.262 169.217 508.912C169.653 508.562 169.975 508.095 170.183 507.513C170.396 506.93 170.503 506.289 170.503 505.588C170.503 504.892 170.396 504.253 170.183 503.67C169.975 503.083 169.653 502.612 169.217 502.257C168.782 501.902 168.233 501.724 167.57 501.724C166.902 501.724 166.348 501.902 165.908 502.257C165.472 502.612 165.148 503.083 164.935 503.67C164.726 504.253 164.622 504.892 164.622 505.588C164.622 506.289 164.726 506.93 164.935 507.513C165.148 508.095 165.472 508.562 165.908 508.912C166.348 509.262 166.902 509.438 167.57 509.438ZM174.918 511V500.091H176.971V501.824H177.084C177.283 501.237 177.634 500.775 178.136 500.439C178.642 500.098 179.215 499.928 179.854 499.928C179.987 499.928 180.143 499.932 180.323 499.942C180.508 499.951 180.652 499.963 180.756 499.977V502.009C180.671 501.985 180.52 501.959 180.302 501.93C180.084 501.897 179.866 501.881 179.648 501.881C179.146 501.881 178.699 501.987 178.306 502.2C177.918 502.409 177.61 502.7 177.383 503.074C177.155 503.443 177.042 503.865 177.042 504.338V511H174.918ZM182.494 511V500.091H184.547V501.824H184.66C184.859 501.237 185.209 500.775 185.711 500.439C186.218 500.098 186.791 499.928 187.43 499.928C187.563 499.928 187.719 499.932 187.899 499.942C188.083 499.951 188.228 499.963 188.332 499.977V502.009C188.247 501.985 188.095 501.959 187.877 501.93C187.66 501.897 187.442 501.881 187.224 501.881C186.722 501.881 186.275 501.987 185.882 502.2C185.493 502.409 185.186 502.7 184.958 503.074C184.731 503.443 184.618 503.865 184.618 504.338V511H182.494ZM194.381 511.22C193.306 511.22 192.38 510.991 191.604 510.531C190.832 510.067 190.235 509.416 189.814 508.578C189.397 507.735 189.189 506.748 189.189 505.616C189.189 504.499 189.397 503.514 189.814 502.662C190.235 501.81 190.823 501.144 191.575 500.666C192.333 500.188 193.218 499.949 194.232 499.949C194.847 499.949 195.444 500.051 196.021 500.254C196.599 500.458 197.118 500.777 197.577 501.213C198.036 501.649 198.398 502.214 198.663 502.911C198.929 503.602 199.061 504.442 199.061 505.432V506.185H190.389V504.594H196.98C196.98 504.035 196.867 503.54 196.639 503.109C196.412 502.674 196.092 502.33 195.681 502.08C195.273 501.829 194.795 501.703 194.246 501.703C193.649 501.703 193.128 501.85 192.683 502.143C192.243 502.432 191.902 502.811 191.661 503.28C191.424 503.744 191.306 504.248 191.306 504.793V506.036C191.306 506.765 191.433 507.385 191.689 507.896C191.949 508.408 192.312 508.798 192.776 509.068C193.24 509.333 193.782 509.466 194.402 509.466C194.805 509.466 195.172 509.409 195.503 509.295C195.834 509.177 196.121 509.002 196.362 508.77C196.604 508.538 196.788 508.251 196.916 507.911L198.926 508.273C198.765 508.865 198.476 509.383 198.06 509.828C197.648 510.268 197.129 510.612 196.504 510.858C195.884 511.099 195.176 511.22 194.381 511.22ZM203.441 504.523V511H201.317V500.091H203.356V501.866H203.491C203.742 501.289 204.135 500.825 204.67 500.474C205.209 500.124 205.889 499.949 206.708 499.949C207.451 499.949 208.102 500.105 208.661 500.418C209.22 500.725 209.653 501.185 209.961 501.795C210.269 502.406 210.423 503.161 210.423 504.061V511H208.299V504.317C208.299 503.526 208.093 502.908 207.681 502.463C207.269 502.013 206.703 501.788 205.984 501.788C205.491 501.788 205.053 501.895 204.67 502.108C204.291 502.321 203.99 502.634 203.768 503.045C203.55 503.453 203.441 503.945 203.441 504.523ZM218.263 500.091V501.795H212.304V500.091H218.263ZM213.902 497.477H216.026V507.797C216.026 508.209 216.087 508.519 216.21 508.727C216.333 508.931 216.492 509.071 216.686 509.146C216.885 509.217 217.1 509.253 217.332 509.253C217.503 509.253 217.652 509.241 217.78 509.217C217.908 509.194 218.007 509.175 218.078 509.161L218.462 510.915C218.339 510.962 218.163 511.009 217.936 511.057C217.709 511.109 217.425 511.137 217.084 511.142C216.525 511.152 216.004 511.052 215.521 510.844C215.038 510.635 214.648 510.313 214.349 509.878C214.051 509.442 213.902 508.895 213.902 508.237V497.477ZM225.096 511.22C224.022 511.22 223.096 510.991 222.319 510.531C221.548 510.067 220.951 509.416 220.53 508.578C220.113 507.735 219.905 506.748 219.905 505.616C219.905 504.499 220.113 503.514 220.53 502.662C220.951 501.81 221.538 501.144 222.291 500.666C223.049 500.188 223.934 499.949 224.947 499.949C225.563 499.949 226.159 500.051 226.737 500.254C227.315 500.458 227.833 500.777 228.292 501.213C228.752 501.649 229.114 502.214 229.379 502.911C229.644 503.602 229.777 504.442 229.777 505.432V506.185H221.105V504.594H227.696C227.696 504.035 227.582 503.54 227.355 503.109C227.128 502.674 226.808 502.33 226.396 502.08C225.989 501.829 225.511 501.703 224.962 501.703C224.365 501.703 223.844 501.85 223.399 502.143C222.959 502.432 222.618 502.811 222.376 503.28C222.14 503.744 222.021 504.248 222.021 504.793V506.036C222.021 506.765 222.149 507.385 222.405 507.896C222.665 508.408 223.027 508.798 223.491 509.068C223.955 509.333 224.497 509.466 225.118 509.466C225.52 509.466 225.887 509.409 226.219 509.295C226.55 509.177 226.837 509.002 227.078 508.77C227.319 508.538 227.504 508.251 227.632 507.911L229.642 508.273C229.481 508.865 229.192 509.383 228.775 509.828C228.363 510.268 227.845 510.612 227.22 510.858C226.6 511.099 225.892 511.22 225.096 511.22Z" fill="black"/>
<rect x="51.5" y="174.5" width="133" height="23" rx="10.5" stroke="black" stroke-opacity="0.4"/>
<path d="M82.598 193V178.455H91.7173V180.344H84.7926V184.776H91.2415V186.658H84.7926V191.111H91.8026V193H82.598ZM96.5019 186.523V193H94.3783V182.091H96.4167V183.866H96.5516C96.8026 183.289 97.1956 182.825 97.7306 182.474C98.2704 182.124 98.9498 181.949 99.769 181.949C100.512 181.949 101.163 182.105 101.722 182.418C102.281 182.725 102.714 183.185 103.022 183.795C103.33 184.406 103.483 185.161 103.483 186.061V193H101.36V186.317C101.36 185.526 101.154 184.908 100.742 184.463C100.33 184.013 99.7642 183.788 99.0445 183.788C98.5521 183.788 98.1141 183.895 97.7306 184.108C97.3518 184.321 97.0512 184.634 96.8286 185.045C96.6108 185.453 96.5019 185.945 96.5019 186.523ZM111.324 182.091V183.795H105.365V182.091H111.324ZM106.963 179.477H109.087V189.797C109.087 190.209 109.148 190.519 109.271 190.727C109.394 190.931 109.553 191.071 109.747 191.146C109.946 191.217 110.161 191.253 110.393 191.253C110.564 191.253 110.713 191.241 110.841 191.217C110.969 191.194 111.068 191.175 111.139 191.161L111.523 192.915C111.4 192.962 111.224 193.009 110.997 193.057C110.77 193.109 110.486 193.137 110.145 193.142C109.586 193.152 109.065 193.052 108.582 192.844C108.099 192.635 107.709 192.313 107.41 191.878C107.112 191.442 106.963 190.895 106.963 190.237V179.477ZM113.573 193V182.091H115.625V183.824H115.739C115.938 183.237 116.288 182.775 116.79 182.439C117.297 182.098 117.87 181.928 118.509 181.928C118.642 181.928 118.798 181.932 118.978 181.942C119.162 181.951 119.307 181.963 119.411 181.977V184.009C119.326 183.985 119.174 183.959 118.956 183.93C118.739 183.897 118.521 183.881 118.303 183.881C117.801 183.881 117.354 183.987 116.961 184.2C116.572 184.409 116.265 184.7 116.037 185.074C115.81 185.443 115.696 185.865 115.696 186.338V193H113.573ZM124.226 193.241C123.534 193.241 122.909 193.114 122.351 192.858C121.792 192.598 121.349 192.221 121.023 191.729C120.701 191.236 120.54 190.633 120.54 189.918C120.54 189.302 120.658 188.795 120.895 188.398C121.131 188 121.451 187.685 121.854 187.453C122.256 187.221 122.706 187.046 123.203 186.928C123.7 186.809 124.207 186.719 124.723 186.658C125.376 186.582 125.907 186.52 126.314 186.473C126.721 186.421 127.017 186.338 127.202 186.224C127.386 186.111 127.479 185.926 127.479 185.67V185.621C127.479 185 127.303 184.52 126.953 184.179C126.607 183.838 126.091 183.668 125.405 183.668C124.69 183.668 124.126 183.826 123.714 184.143C123.307 184.456 123.025 184.804 122.869 185.188L120.873 184.733C121.11 184.07 121.456 183.535 121.91 183.128C122.37 182.716 122.898 182.418 123.494 182.233C124.091 182.044 124.718 181.949 125.376 181.949C125.812 181.949 126.274 182.001 126.761 182.105C127.254 182.205 127.713 182.389 128.139 182.659C128.57 182.929 128.923 183.315 129.197 183.817C129.472 184.314 129.609 184.96 129.609 185.756V193H127.535V191.509H127.45C127.313 191.783 127.107 192.053 126.832 192.318C126.558 192.583 126.205 192.804 125.774 192.979C125.343 193.154 124.827 193.241 124.226 193.241ZM124.687 191.537C125.274 191.537 125.776 191.421 126.193 191.189C126.614 190.957 126.934 190.654 127.152 190.28C127.374 189.901 127.486 189.496 127.486 189.065V187.659C127.41 187.735 127.263 187.806 127.045 187.872C126.832 187.934 126.588 187.988 126.314 188.036C126.039 188.078 125.772 188.118 125.511 188.156C125.251 188.189 125.033 188.218 124.858 188.241C124.446 188.294 124.069 188.381 123.729 188.504C123.392 188.627 123.122 188.805 122.919 189.037C122.72 189.264 122.621 189.567 122.621 189.946C122.621 190.472 122.815 190.869 123.203 191.139C123.591 191.404 124.086 191.537 124.687 191.537ZM136.422 193.213C135.541 193.213 134.755 192.988 134.064 192.538C133.377 192.084 132.837 191.437 132.444 190.599C132.056 189.757 131.862 188.746 131.862 187.567C131.862 186.388 132.058 185.379 132.451 184.541C132.849 183.703 133.394 183.062 134.085 182.616C134.776 182.171 135.56 181.949 136.436 181.949C137.113 181.949 137.657 182.062 138.069 182.29C138.486 182.512 138.808 182.773 139.035 183.071C139.267 183.369 139.447 183.632 139.575 183.859H139.703V178.455H141.826V193H139.752V191.303H139.575C139.447 191.535 139.262 191.8 139.021 192.098C138.784 192.396 138.458 192.657 138.041 192.879C137.624 193.102 137.084 193.213 136.422 193.213ZM136.89 191.402C137.501 191.402 138.017 191.241 138.439 190.919C138.865 190.592 139.187 190.14 139.404 189.562C139.627 188.985 139.738 188.312 139.738 187.545C139.738 186.788 139.629 186.125 139.412 185.557C139.194 184.989 138.874 184.546 138.453 184.229C138.031 183.911 137.511 183.753 136.89 183.753C136.251 183.753 135.718 183.919 135.292 184.25C134.866 184.581 134.544 185.034 134.326 185.607C134.113 186.179 134.007 186.826 134.007 187.545C134.007 188.275 134.116 188.93 134.333 189.513C134.551 190.095 134.873 190.557 135.299 190.898C135.73 191.234 136.261 191.402 136.89 191.402ZM147.932 193.241C147.241 193.241 146.616 193.114 146.057 192.858C145.498 192.598 145.056 192.221 144.729 191.729C144.407 191.236 144.246 190.633 144.246 189.918C144.246 189.302 144.364 188.795 144.601 188.398C144.838 188 145.157 187.685 145.56 187.453C145.962 187.221 146.412 187.046 146.909 186.928C147.406 186.809 147.913 186.719 148.429 186.658C149.083 186.582 149.613 186.52 150.02 186.473C150.427 186.421 150.723 186.338 150.908 186.224C151.092 186.111 151.185 185.926 151.185 185.67V185.621C151.185 185 151.01 184.52 150.659 184.179C150.314 183.838 149.797 183.668 149.111 183.668C148.396 183.668 147.833 183.826 147.421 184.143C147.013 184.456 146.732 184.804 146.575 185.188L144.58 184.733C144.816 184.07 145.162 183.535 145.617 183.128C146.076 182.716 146.604 182.418 147.2 182.233C147.797 182.044 148.424 181.949 149.083 181.949C149.518 181.949 149.98 182.001 150.467 182.105C150.96 182.205 151.419 182.389 151.845 182.659C152.276 182.929 152.629 183.315 152.904 183.817C153.178 184.314 153.315 184.96 153.315 185.756V193H151.242V191.509H151.156C151.019 191.783 150.813 192.053 150.538 192.318C150.264 192.583 149.911 192.804 149.48 192.979C149.049 193.154 148.533 193.241 147.932 193.241ZM148.394 191.537C148.981 191.537 149.483 191.421 149.899 191.189C150.321 190.957 150.64 190.654 150.858 190.28C151.081 189.901 151.192 189.496 151.192 189.065V187.659C151.116 187.735 150.969 187.806 150.752 187.872C150.538 187.934 150.295 187.988 150.02 188.036C149.745 188.078 149.478 188.118 149.217 188.156C148.957 188.189 148.739 188.218 148.564 188.241C148.152 188.294 147.776 188.381 147.435 188.504C147.099 188.627 146.829 188.805 146.625 189.037C146.426 189.264 146.327 189.567 146.327 189.946C146.327 190.472 146.521 190.869 146.909 191.139C147.297 191.404 147.792 191.537 148.394 191.537Z" fill="black"/>
<rect x="199" y="588" width="128" height="58" rx="29" fill="black" stroke="black" stroke-width="2"/>
<rect x="49" y="588" width="128" height="58" rx="29" stroke="black" stroke-width="2"/>
<path d="M86.0795 616H85.0227C84.9602 615.696 84.8509 615.429 84.6946 615.199C84.5412 614.969 84.3537 614.776 84.1321 614.619C83.9134 614.46 83.6705 614.341 83.4034 614.261C83.1364 614.182 82.858 614.142 82.5682 614.142C82.0398 614.142 81.5611 614.276 81.1321 614.543C80.706 614.81 80.3665 615.203 80.1136 615.723C79.8636 616.243 79.7386 616.881 79.7386 617.636C79.7386 618.392 79.8636 619.03 80.1136 619.55C80.3665 620.07 80.706 620.463 81.1321 620.73C81.5611 620.997 82.0398 621.131 82.5682 621.131C82.858 621.131 83.1364 621.091 83.4034 621.011C83.6705 620.932 83.9134 620.814 84.1321 620.658C84.3537 620.499 84.5412 620.304 84.6946 620.074C84.8509 619.841 84.9602 619.574 85.0227 619.273H86.0795C86 619.719 85.8551 620.118 85.6449 620.47C85.4347 620.822 85.1733 621.122 84.8608 621.369C84.5483 621.614 84.1974 621.8 83.8082 621.928C83.4219 622.055 83.0085 622.119 82.5682 622.119C81.8239 622.119 81.1619 621.938 80.5824 621.574C80.0028 621.21 79.5469 620.693 79.2145 620.023C78.8821 619.352 78.7159 618.557 78.7159 617.636C78.7159 616.716 78.8821 615.92 79.2145 615.25C79.5469 614.58 80.0028 614.062 80.5824 613.699C81.1619 613.335 81.8239 613.153 82.5682 613.153C83.0085 613.153 83.4219 613.217 83.8082 613.345C84.1974 613.473 84.5483 613.661 84.8608 613.908C85.1733 614.152 85.4347 614.45 85.6449 614.803C85.8551 615.152 86 615.551 86.0795 616ZM88.1452 622H87.0373L90.2418 613.273H91.3327L94.5373 622H93.4293L90.8214 614.653H90.7532L88.1452 622ZM88.5543 618.591H93.0202V619.528H88.5543V618.591ZM102.817 613.273V622H101.794L97.0387 615.148H96.9535V622H95.8967V613.273H96.9194L101.692 620.142H101.777V613.273H102.817ZM111.955 616H110.898C110.835 615.696 110.726 615.429 110.57 615.199C110.416 614.969 110.229 614.776 110.007 614.619C109.788 614.46 109.545 614.341 109.278 614.261C109.011 614.182 108.733 614.142 108.443 614.142C107.915 614.142 107.436 614.276 107.007 614.543C106.581 614.81 106.241 615.203 105.989 615.723C105.739 616.243 105.614 616.881 105.614 617.636C105.614 618.392 105.739 619.03 105.989 619.55C106.241 620.07 106.581 620.463 107.007 620.73C107.436 620.997 107.915 621.131 108.443 621.131C108.733 621.131 109.011 621.091 109.278 621.011C109.545 620.932 109.788 620.814 110.007 620.658C110.229 620.499 110.416 620.304 110.57 620.074C110.726 619.841 110.835 619.574 110.898 619.273H111.955C111.875 619.719 111.73 620.118 111.52 620.47C111.31 620.822 111.048 621.122 110.736 621.369C110.423 621.614 110.072 621.8 109.683 621.928C109.297 622.055 108.884 622.119 108.443 622.119C107.699 622.119 107.037 621.938 106.457 621.574C105.878 621.21 105.422 620.693 105.089 620.023C104.757 619.352 104.591 618.557 104.591 617.636C104.591 616.716 104.757 615.92 105.089 615.25C105.422 614.58 105.878 614.062 106.457 613.699C107.037 613.335 107.699 613.153 108.443 613.153C108.884 613.153 109.297 613.217 109.683 613.345C110.072 613.473 110.423 613.661 110.736 613.908C111.048 614.152 111.31 614.45 111.52 614.803C111.73 615.152 111.875 615.551 111.955 616ZM113.662 622V613.273H118.929V614.21H114.719V617.159H118.657V618.097H114.719V621.062H118.998V622H113.662ZM120.834 622V613.273H121.891V621.062H125.948V622H120.834ZM128.493 622H127.385L130.589 613.273H131.68L134.885 622H133.777L131.169 614.653H131.101L128.493 622ZM128.902 618.591H133.368V619.528H128.902V618.591ZM136.244 622V613.273H139.193C139.875 613.273 140.435 613.389 140.872 613.622C141.31 613.852 141.634 614.169 141.844 614.572C142.054 614.976 142.159 615.435 142.159 615.949C142.159 616.463 142.054 616.919 141.844 617.317C141.634 617.714 141.311 618.027 140.876 618.254C140.442 618.479 139.886 618.591 139.21 618.591H136.824V617.636H139.176C139.642 617.636 140.017 617.568 140.301 617.432C140.588 617.295 140.795 617.102 140.923 616.852C141.054 616.599 141.119 616.298 141.119 615.949C141.119 615.599 141.054 615.294 140.923 615.033C140.793 614.771 140.584 614.57 140.297 614.428C140.01 614.283 139.631 614.21 139.159 614.21H137.301V622H136.244ZM140.352 618.08L142.5 622H141.273L139.159 618.08H140.352Z" fill="black"/>
<path d="M236.08 616H235.023C234.96 615.696 234.851 615.429 234.695 615.199C234.541 614.969 234.354 614.776 234.132 614.619C233.913 614.46 233.67 614.341 233.403 614.261C233.136 614.182 232.858 614.142 232.568 614.142C232.04 614.142 231.561 614.276 231.132 614.543C230.706 614.81 230.366 615.203 230.114 615.723C229.864 616.243 229.739 616.881 229.739 617.636C229.739 618.392 229.864 619.03 230.114 619.55C230.366 620.07 230.706 620.463 231.132 620.73C231.561 620.997 232.04 621.131 232.568 621.131C232.858 621.131 233.136 621.091 233.403 621.011C233.67 620.932 233.913 620.814 234.132 620.658C234.354 620.499 234.541 620.304 234.695 620.074C234.851 619.841 234.96 619.574 235.023 619.273H236.08C236 619.719 235.855 620.118 235.645 620.47C235.435 620.822 235.173 621.122 234.861 621.369C234.548 621.614 234.197 621.8 233.808 621.928C233.422 622.055 233.009 622.119 232.568 622.119C231.824 622.119 231.162 621.938 230.582 621.574C230.003 621.21 229.547 620.693 229.214 620.023C228.882 619.352 228.716 618.557 228.716 617.636C228.716 616.716 228.882 615.92 229.214 615.25C229.547 614.58 230.003 614.062 230.582 613.699C231.162 613.335 231.824 613.153 232.568 613.153C233.009 613.153 233.422 613.217 233.808 613.345C234.197 613.473 234.548 613.661 234.861 613.908C235.173 614.152 235.435 614.45 235.645 614.803C235.855 615.152 236 615.551 236.08 616ZM245.151 617.636C245.151 618.557 244.985 619.352 244.652 620.023C244.32 620.693 243.864 621.21 243.284 621.574C242.705 621.938 242.043 622.119 241.299 622.119C240.554 622.119 239.892 621.938 239.313 621.574C238.733 621.21 238.277 620.693 237.945 620.023C237.613 619.352 237.446 618.557 237.446 617.636C237.446 616.716 237.613 615.92 237.945 615.25C238.277 614.58 238.733 614.062 239.313 613.699C239.892 613.335 240.554 613.153 241.299 613.153C242.043 613.153 242.705 613.335 243.284 613.699C243.864 614.062 244.32 614.58 244.652 615.25C244.985 615.92 245.151 616.716 245.151 617.636ZM244.128 617.636C244.128 616.881 244.002 616.243 243.749 615.723C243.499 615.203 243.159 614.81 242.73 614.543C242.304 614.276 241.827 614.142 241.299 614.142C240.77 614.142 240.292 614.276 239.863 614.543C239.436 614.81 239.097 615.203 238.844 615.723C238.594 616.243 238.469 616.881 238.469 617.636C238.469 618.392 238.594 619.03 238.844 619.55C239.097 620.07 239.436 620.463 239.863 620.73C240.292 620.997 240.77 621.131 241.299 621.131C241.827 621.131 242.304 620.997 242.73 620.73C243.159 620.463 243.499 620.07 243.749 619.55C244.002 619.03 244.128 618.392 244.128 617.636ZM253.848 613.273V622H252.826L248.07 615.148H247.985V622H246.928V613.273H247.951L252.723 620.142H252.809V613.273H253.848ZM262.986 616H261.929C261.866 615.696 261.757 615.429 261.601 615.199C261.447 614.969 261.26 614.776 261.038 614.619C260.82 614.46 260.577 614.341 260.31 614.261C260.043 614.182 259.764 614.142 259.474 614.142C258.946 614.142 258.467 614.276 258.038 614.543C257.612 614.81 257.273 615.203 257.02 615.723C256.77 616.243 256.645 616.881 256.645 617.636C256.645 618.392 256.77 619.03 257.02 619.55C257.273 620.07 257.612 620.463 258.038 620.73C258.467 620.997 258.946 621.131 259.474 621.131C259.764 621.131 260.043 621.091 260.31 621.011C260.577 620.932 260.82 620.814 261.038 620.658C261.26 620.499 261.447 620.304 261.601 620.074C261.757 619.841 261.866 619.574 261.929 619.273H262.986C262.906 619.719 262.761 620.118 262.551 620.47C262.341 620.822 262.08 621.122 261.767 621.369C261.455 621.614 261.104 621.8 260.714 621.928C260.328 622.055 259.915 622.119 259.474 622.119C258.73 622.119 258.068 621.938 257.489 621.574C256.909 621.21 256.453 620.693 256.121 620.023C255.788 619.352 255.622 618.557 255.622 617.636C255.622 616.716 255.788 615.92 256.121 615.25C256.453 614.58 256.909 614.062 257.489 613.699C258.068 613.335 258.73 613.153 259.474 613.153C259.915 613.153 260.328 613.217 260.714 613.345C261.104 613.473 261.455 613.661 261.767 613.908C262.08 614.152 262.341 614.45 262.551 614.803C262.761 615.152 262.906 615.551 262.986 616ZM264.694 622V613.273H265.75V621.062H269.807V622H264.694ZM277.171 613.273H278.228V619.051C278.228 619.648 278.087 620.18 277.806 620.649C277.527 621.115 277.134 621.483 276.625 621.753C276.117 622.02 275.52 622.153 274.836 622.153C274.151 622.153 273.554 622.02 273.046 621.753C272.537 621.483 272.142 621.115 271.861 620.649C271.583 620.18 271.444 619.648 271.444 619.051V613.273H272.5V618.966C272.5 619.392 272.594 619.771 272.782 620.104C272.969 620.433 273.236 620.693 273.583 620.884C273.932 621.071 274.35 621.165 274.836 621.165C275.321 621.165 275.739 621.071 276.088 620.884C276.438 620.693 276.705 620.433 276.89 620.104C277.077 619.771 277.171 619.392 277.171 618.966V613.273ZM281.395 613.273V622H280.338V613.273H281.395ZM283.514 622V613.273H286.463C287.145 613.273 287.704 613.389 288.142 613.622C288.579 613.852 288.903 614.169 289.113 614.572C289.324 614.976 289.429 615.435 289.429 615.949C289.429 616.463 289.324 616.919 289.113 617.317C288.903 617.714 288.581 618.027 288.146 618.254C287.711 618.479 287.156 618.591 286.48 618.591H284.093V617.636H286.446C286.912 617.636 287.287 617.568 287.571 617.432C287.858 617.295 288.065 617.102 288.193 616.852C288.324 616.599 288.389 616.298 288.389 615.949C288.389 615.599 288.324 615.294 288.193 615.033C288.062 614.771 287.853 614.57 287.566 614.428C287.279 614.283 286.9 614.21 286.429 614.21H284.571V622H283.514ZM287.622 618.08L289.77 622H288.542L286.429 618.08H287.622Z" fill="white"/>
<path fill-rule="evenodd" clip-rule="evenodd" d="M305.914 766.414C305.914 766.966 306.362 767.414 306.914 767.414C307.466 767.414 307.914 766.966 307.914 766.414L307.914 761.414L313.914 761.414C314.466 761.414 314.914 760.966 314.914 760.414C314.914 759.862 314.466 759.414 313.914 759.414L307.914 759.414L307.914 753.414C307.914 752.862 307.466 752.414 306.914 752.414C306.362 752.414 305.914 752.862 305.914 753.414L305.914 759.414L300.914 759.414C300.362 759.414 299.914 759.862 299.914 760.414C299.914 760.966 300.362 761.414 300.914 761.414L305.914 761.414L305.914 766.414Z" fill="white"/>
<path fill-rule="evenodd" clip-rule="evenodd" d="M235.828 758.828C236.381 758.828 236.828 759.276 236.828 759.828C236.828 760.381 236.381 760.828 235.828 760.828L229.828 760.828L229.828 766.828C229.828 767.381 229.381 767.828 228.828 767.828C228.276 767.828 227.828 767.381 227.828 766.828V760.828H221.828C221.276 760.828 220.828 760.381 220.828 759.828C220.828 759.276 221.276 758.828 221.828 758.828L227.828 758.828L227.828 752.828C227.828 752.276 228.276 751.828 228.828 751.828C229.381 751.828 229.828 752.276 229.828 752.828V758.828H235.828Z" fill="white"/>
<rect x="1" y="1" width="373" height="810" rx="49" stroke="black" stroke-width="2"/>
<rect x="1" y="713" width="373" height="98" rx="39" fill="#ECF0F3" stroke="black" stroke-width="2"/>
<rect x="38" y="740" width="43" height="43" rx="19" stroke="black" stroke-width="2"/>
<path fill-rule="evenodd" clip-rule="evenodd" d="M67 760.739V767.465C67 768.569 66.1046 769.465 65 769.465H62.4649C62.8052 768.876 63 768.193 63 767.465V765.735C63 764.567 62.4902 763.458 61.6042 762.699C60.1059 761.413 57.8941 761.413 56.3958 762.699C55.5098 763.458 55 764.567 55 765.735V767.465C55 768.193 55.1948 768.876 55.5351 769.465H53C51.8954 769.465 51 768.569 51 767.465V760.739C51 760.193 51.2231 759.671 51.6176 759.294L57.6176 753.555C58.3908 752.815 59.6092 752.815 60.3824 753.555L66.3824 759.294C66.7769 759.671 67 760.193 67 760.739ZM58.9773 769.465C57.8832 769.453 57 768.562 57 767.465V765.735C57 765.151 57.2549 764.597 57.6979 764.217C58.447 763.574 59.553 763.574 60.3021 764.217C60.7451 764.597 61 765.151 61 765.735V767.465C61 768.562 60.1168 769.453 59.0227 769.465H58.9773ZM58.9679 771.465H53C50.7909 771.465 49 769.674 49 767.465V760.739C49 759.647 49.4462 758.603 50.2351 757.848L56.2351 752.109C57.7816 750.63 60.2184 750.63 61.7649 752.109L67.7649 757.848C68.5538 758.603 69 759.647 69 760.739V767.465C69 769.674 67.2091 771.465 65 771.465H59.0321C59.0214 771.465 59.0107 771.465 59 771.465C58.9893 771.465 58.9786 771.465 58.9679 771.465Z" fill="black"/>
<rect x="123" y="740" width="43" height="43" rx="19" stroke="black" stroke-width="2"/>
<path fill-rule="evenodd" clip-rule="evenodd" d="M137 756C137 754.343 138.343 753 140 753H148C149.657 753 151 754.343 151 756V757.204L148.802 759.402C148.619 759.158 148.328 759 148 759H140C139.448 759 139 759.448 139 760C139 760.552 139.448 761 140 761H147.204L145.186 763.017C145.126 763.006 145.064 763 145 763H140C139.448 763 139 763.448 139 764C139 764.552 139.448 765 140 765H144L143.774 765.952C143.479 767.195 144.397 768.331 145.579 768.411C145.774 768.424 145.977 768.408 146.182 768.359L147.626 768.017C147.986 767.931 148.316 767.747 148.578 767.485L151 765.063V766C151 767.657 149.657 769 148 769H140C138.343 769 137 767.657 137 766V756ZM153 763.063V766C153 768.761 150.761 771 148 771H140C137.239 771 135 768.761 135 766V756C135 753.239 137.239 751 140 751H148C150.577 751 152.699 752.95 152.971 755.455C153.693 755.162 154.552 755.308 155.138 755.894L156.239 756.996C157.02 757.777 157.02 759.043 156.239 759.824L153 763.063ZM145.72 766.413L147.164 766.071L154.825 758.41L153.724 757.308L152.722 758.31C152.717 758.315 152.712 758.32 152.707 758.325L146.063 764.97L145.72 766.413ZM139 756C139 755.448 139.448 755 140 755H148C148.552 755 149 755.448 149 756C149 756.552 148.552 757 148 757H140C139.448 757 139 756.552 139 756Z" fill="black"/>
<rect x="293" y="740" width="43" height="43" rx="19" fill="black" stroke="black" stroke-width="2"/>
<circle cx="331" cy="745" r="5" fill="white" stroke="black" stroke-width="2"/>
<path fill-rule="evenodd" clip-rule="evenodd" d="M320.828 758.828C321.381 758.828 321.828 759.276 321.828 759.828C321.828 760.381 321.381 760.828 320.828 760.828L314.828 760.828L314.828 766.828C314.828 767.381 314.381 767.828 313.828 767.828C313.276 767.828 312.828 767.381 312.828 766.828V760.828H306.828C306.276 760.828 305.828 760.381 305.828 759.828C305.828 759.276 306.276 758.828 306.828 758.828L312.828 758.828L312.828 752.828C312.828 752.276 313.276 751.828 313.828 751.828C314.381 751.828 314.828 752.276 314.828 752.828V758.828H320.828Z" fill="white"/>
<mask id="path-43-inside-1_0_1" fill="white">
<path fill-rule="evenodd" clip-rule="evenodd" d="M220.455 757.091C218.697 758.848 218.697 761.697 220.455 763.455L226.979 769.979C227.365 770.365 227.986 770.37 228.377 769.995C228.479 769.947 228.574 769.882 228.657 769.798L235.182 763.273C236.939 761.516 236.939 758.667 235.182 756.909C233.425 755.152 230.575 755.152 228.818 756.909L227.728 758L226.819 757.091C225.061 755.333 222.212 755.333 220.455 757.091Z"/>
</mask>
<path d="M228.377 769.995L227.523 768.187L227.23 768.325L226.995 768.55L228.377 769.995ZM228.657 769.798L227.243 768.384L227.243 768.384L228.657 769.798ZM235.182 763.273L236.596 764.687L235.182 763.273ZM235.182 756.909L236.596 755.495L236.596 755.495L235.182 756.909ZM228.818 756.909L227.404 755.495L228.818 756.909ZM227.728 758L226.313 759.414L227.728 760.828L229.142 759.414L227.728 758ZM226.819 757.091L228.233 755.677L226.819 757.091ZM221.869 762.041C220.893 761.064 220.893 759.481 221.869 758.505L219.04 755.677C216.502 758.215 216.502 762.331 219.04 764.869L221.869 762.041ZM228.394 768.565L221.869 762.041L219.04 764.869L225.565 771.394L228.394 768.565ZM226.995 768.55C227.387 768.175 228.008 768.18 228.394 768.565L225.565 771.394C226.721 772.549 228.584 772.565 229.76 771.441L226.995 768.55ZM227.243 768.384C227.324 768.302 227.42 768.236 227.523 768.187L229.231 771.804C229.538 771.659 229.823 771.461 230.072 771.212L227.243 768.384ZM233.768 761.859L227.243 768.384L230.072 771.212L236.596 764.687L233.768 761.859ZM233.768 758.323C234.744 759.3 234.744 760.883 233.768 761.859L236.596 764.687C239.135 762.149 239.135 758.033 236.596 755.495L233.768 758.323ZM230.232 758.323C231.209 757.347 232.791 757.347 233.768 758.323L236.596 755.495C234.058 752.957 229.942 752.957 227.404 755.495L230.232 758.323ZM229.142 759.414L230.232 758.323L227.404 755.495L226.313 756.585L229.142 759.414ZM225.404 758.505L226.313 759.414L229.142 756.585L228.233 755.677L225.404 758.505ZM221.869 758.505C222.845 757.529 224.428 757.529 225.404 758.505L228.233 755.677C225.694 753.138 221.579 753.138 219.04 755.677L221.869 758.505Z" fill="black" mask="url(#path-43-inside-1_0_1)"/>
<rect x="206" y="740" width="43" height="43" rx="21.5" stroke="black" stroke-width="2"/>
</svg>
